<?xml version="1.0" encoding="UTF-8" standalone="no"?>
<!DOCTYPE svg PUBLIC "-//W3C//DTD SVG 1.1//EN" "http://www.w3.org/Graphics/SVG/1.1/DTD/svg11.dtd">
<svg xmlns="http://www.w3.org/2000/svg" xmlns:xlink="http://www.w3.org/1999/xlink" version="1.1" width="612pt" height="792pt" viewBox="0 0 612 792">
<g enable-background="new">
<path transform="matrix(1,0,0,-1,108,83.185)" d="M 0 0 L 396 0 L 396 3.985 L 0 3.985 Z "/>
<text xml:space="preserve" transform="matrix(1 0 -0 1 0 792)" font-size="17.2154" font-family="NimbusRomNo9L" font-weight="bold"><tspan y="-678.953" x="173.425 182.99677 190.64041 200.21218 209.78394 217.42758 226.99935 234.64298 246.59047 262.8418 271.4495 281.02128 288.66493 297.75468 304.45146 318.79188 323.57777 329.3105 337.91819 343.6509 348.4368 357.0445 370.92015 382.4028 390.04646 398.65415 406.03956 415.61134 420.39723 429.969">SequenceModelImitationLearning</tspan><tspan y="-659.028" x="208.794 221.22353 226.00942 231.74214 245.61775 258.04728 267.61906 276.22676 285.79853 292.4953 300.13896 307.61045 316.046 323.68965 337.56529 349.9948 358.6025 368.1743 373.907 381.55067 390.15837 395.89109">withUnobservedContexts</tspan></text>
<path transform="matrix(1,0,0,-1,108,149.07703)" stroke-width=".996" stroke-linecap="butt" stroke-miterlimit="10" stroke-linejoin="miter" fill="none" stroke="#000000" d="M 0 0 L 396 0 "/>
<text xml:space="preserve" transform="matrix(1 0 -0 1 0 792)" font-size="9.9626" font-family="NimbusRomNo9L" font-weight="bold"><tspan y="-606.556" x="189.912 197.6629 202.6442 208.1834 213.7226 218.98285 224.52205 231.71504 236.69634 244.99518">GokulSwamy</tspan></text>
<text xml:space="preserve" transform="matrix(1 0 -0 1 0 792)" font-size="9.9626" font-family="NimbusRomNo9L"><tspan y="-595.64706" x="164.323 170.96805 175.39145 178.709 183.69029 187.96425 192.94554 195.71515 202.6292 211.48595 215.90935 218.67896 221.44857 226.42986 233.9018 241.09479 246.07608 248.59662 253.42847 257.85188 261.1694 265.04487 267.81446 270.58406">CarnegieMellonUniversity</tspan></text>
<text xml:space="preserve" transform="matrix(1 0 -0 1 0 792)" font-size="9.9626" font-family="SFTT1000"><tspan y="-584.73709" x="183.34 188.57036 193.80072 199.03108 204.26145 209.4918 214.72217 219.95253 225.18289 230.41326 235.64362 240.87398 246.10434 251.3347">gswamy@cmu.edu</tspan></text>
<text xml:space="preserve" transform="matrix(1 0 -0 1 0 792)" font-size="9.9626" font-family="NimbusRomNo9L" font-weight="bold"><tspan y="-606.556" x="347.785 353.32423 358.3055 363.84474 367.16227 369.93186 375.47108 380.45237 388.48225 395.67524 401.21446 406.19575 411.73497 417.27418 422.8134 428.3526 432.776">SanjibanChoudhury</tspan></text>
<text xml:space="preserve" transform="matrix(1 0 -0 1 0 792)" font-size="9.9626" font-family="NimbusRomNo9L"><tspan y="-595.64706" x="355.75 362.39506 367.37635 370.69389 375.67518 380.09858 382.86817 388.12843 395.3214 400.3027 402.82325 407.6551 412.0785 415.39604 419.27149 422.04109 424.81068">CornellUniversity</tspan></text>
<text xml:space="preserve" transform="matrix(1 0 -0 1 0 792)" font-size="9.9626" font-family="SFTT1000"><tspan y="-584.73709" x="337.866 343.09638 348.32676 353.55714 358.7875 364.01789 369.24827 374.47865 379.709 384.9394 390.16978 395.40016 400.63053 405.8609 411.09129 416.32167 421.55204 426.7824 432.00285 437.23323 442.4636">sanjibanc@cornell.edu</tspan></text>
<text xml:space="preserve" transform="matrix(1 0 -0 1 0 792)" font-size="9.9626" font-family="NimbusRomNo9L" font-weight="bold"><tspan y="-556.55807" x="195.693 200.47504 205.45633 212.64933 218.18852 223.72772 227.9718 232.3952 242.07884 248.72389 253.70519 258.6865 264.2257 268.6491 271.4187">J.AndrewBagnell</tspan></text>
<text xml:space="preserve" transform="matrix(1 0 -0 1 0 792)" font-size="9.9626" font-family="NimbusRomNo9L"><tspan y="-545.64907" x="132.89899 140.09198 145.07328 148.39083 153.37212 156.68967 163.60372 166.92127 171.90256 176.88385 181.7157 186.44792 190.87133 193.64093 196.41054 201.39183 208.86377 213.28717 218.26847 225.7404 232.38545 236.80886 240.1264 245.1077 249.38166 254.36295 257.13255 264.0466 272.90336 277.32676 280.09635 282.86595 287.84724 295.31919 302.51219 307.49348 310.014 314.84587 319.26927 322.5868 326.46226 329.23185 332.00144">AuroraInnovationandCarnegieMellonUniversity</tspan></text>
<text xml:space="preserve" transform="matrix(1 0 -0 1 0 792)" font-size="9.9626" font-family="SFTT1000"><tspan y="-534.74008" x="185.26399 190.49436 195.72472 200.95508 206.18544 211.4158 216.64617 221.87653 227.10689 232.33725 237.56761 242.79798 248.02834 253.2587 258.48908 263.71946 268.94984 274.1802 279.41059">dbagnell@ri.cmu.edu</tspan></text>
<text xml:space="preserve" transform="matrix(1 0 -0 1 0 792)" font-size="9.9626" font-family="NimbusRomNo9L" font-weight="bold"><tspan y="-556.55807" x="384.83 391.47505 397.01426 399.78385 406.97685 411.40025 416.6605 422.1997 425.51725 429.7912 434.67286 439.09626 447.12614 456.59059">ZhiweiStevenWu</tspan></text>
<text xml:space="preserve" transform="matrix(1 0 -0 1 0 792)" font-size="9.9626" font-family="NimbusRomNo9L"><tspan y="-545.64907" x="367.85899 374.50404 378.92744 382.24497 387.22627 391.5002 396.4815 399.2511 406.16517 415.0219 419.4453 422.2149 424.9845 429.9658 437.43775 444.63075 449.61204 452.13258 456.96443 461.38783 464.70536 468.5808 471.3504 474.12">CarnegieMellonUniversity</tspan></text>
<text xml:space="preserve" transform="matrix(1 0 -0 1 0 792)" font-size="9.9626" font-family="SFTT1000"><tspan y="-534.74008" x="379.03199 384.26237 389.49275 394.7231 399.9535 405.18388 410.41426 415.64463 420.875 426.10539 431.33576 436.56614 441.7965 447.0269 452.25727 457.48765 462.71803">zstevenwu@cmu.edu</tspan></text>
<text xml:space="preserve" transform="matrix(1 0 -0 1 0 792)" font-size="11.9552" font-family="NimbusRomNo9L" font-weight="bold"><tspan y="-493.55805" x="283.758 292.38966 299.03675 303.68733 307.6684 312.9765 318.9541 324.2622">Abstract</tspan></text>
<text xml:space="preserve" transform="matrix(1.0099505 0 -0 .9901476 0 792)" font-size="10.061732" font-family="NimbusRomNo9L"><tspan y="-474.5484" x="142.44855 151.16202 159.25165 163.71904 168.74993 173.78079 177.69481 180.49198 185.52285 189.99024 196.96302 199.76018 207.58821 210.38536 213.18253 217.64994 220.4471 223.24427 228.27513 236.92823 239.72539 244.1928 248.6602 252.01076 257.04164 259.83879 264.86967 273.5328 278.56367 281.91426 286.94514 291.97599 294.77314 299.24058 307.06858 314.60484 321.8694 326.90028 331.36769 334.71827 342.8079 345.60505 350.63594 358.72557 361.5227 365.9901 370.45756 373.8081 378.839 383.3064 386.65699 389.4642 397.01054 401.47795 406.50883 409.30598 412.10313 414.90028 417.69743 426.3505 429.14765 437.80076 445.62876 448.4259 456.25395 459.0511">Weconsiderimitationlearningproblemswherethelearner&#x2019;sabilitytomimic</tspan><tspan y="-463.53086" x="142.44855 145.24571 150.2766 158.28572 162.61225 167.64313 172.674 177.14139 180.49196 186.83084 189.628 194.65888 199.12628 202.47684 206.94423 211.41164 215.32566 219.79305 227.24878 230.04595 235.07683 238.42739 243.45825 248.48912 253.51999 258.55088 263.58174 268.6126 274.96156 277.7587 282.78959 290.7987 295.2661 300.297 305.32789 308.67845 312.59248 320.60163 325.63249 332.53486 337.00227 345.57487 350.04228 355.07316 357.8703 361.78434 366.8152 371.84608 379.86528 384.33268 391.78843 399.61647 404.64735 407.9979 416.00706 418.8042 423.83506 427.18565 432.2165 435.56709 443.3951 447.86253 450.65968 453.45683 458.48768">theexpertincreasesthroughoutthecourseofanepisodeasmoreinformation</tspan><tspan y="-452.5133" x="142.44855 145.24571 152.87252 156.22307 160.44899 165.32894 169.79633 174.26374 177.0609 181.5283 186.55918 195.8864 203.15097 208.18184 216.36203 220.6785 225.70937 230.17678 238.00479 243.03566 245.83283 254.02307 259.05397 266.1173 268.91447 273.9453 276.74247 284.3693 287.1664 294.79325 302.0578 307.08869 311.5561 320.3098 323.10697 328.13783 336.31803 340.63453 345.66539 350.69627 355.16368 358.51426 365.03425 370.06513 374.53254 382.15934 386.62675 391.09419 395.56159 400.029 403.94303 411.56983 414.36698 423.1207 428.15159 431.50215 434.04774 439.0786 441.87577 444.6729 448.98939 454.02027 458.48768">isrevealed.Oneexampleofthisiswhentheexperthasaccesstoprivileged</tspan><tspan y="-441.4958" x="142.44855 145.24571 150.2766 153.62715 158.65802 162.00858 169.8366 174.304 177.10117 179.89833 184.9292 189.96007 196.38951 203.65409 208.68495 211.48212 214.27928 221.5036 224.30077 229.33164 236.55596 239.35312 243.82053 248.28792 251.63848 256.66935 261.13679 267.24427 275.0723 277.86946 282.9003 287.93119 293.4752 298.50608 303.53697 309.091 314.12187 321.3462 325.8136 330.84449 333.64164 340.86595 343.6631 351.44084 355.90824 360.37568 364.84309 369.87397 373.22453 377.69197 380.4891 384.9565 387.75367 395.54145 398.892 403.35945 408.3903 411.74089 416.77174 421.8026 426.8335 431.3009 438.5252 442.8417 447.8726 452.90345 457.37089 460.72145">information:whilethelearnermightnotbeabletoaccuratelyreproduceexpert</tspan><tspan y="-430.47825" x="142.44855 147.47943 151.94683 156.9777 161.24388 166.27475 169.07192 174.10279 180.5121 184.9795 189.44692 192.79747 195.59464 203.68427 208.71515 216.80478 219.59189 227.68152 232.14893 240.23857 244.70597 249.73685 252.534 256.44804 261.47889 266.50978 270.97718 276.69227 281.7231 289.81278 294.28019 299.31108 304.34193 308.25596 311.0531 316.08399 320.5514 323.90196 326.6991 331.72999 339.8196 342.61677 347.64765 355.16377 359.6312 364.66206 367.4592 370.25636 373.60694 381.13313 386.16398 388.96113 392.87516 395.6723 400.7032 404.05375 412.14338 417.17427 423.5836 427.49763 430.29478 434.76219 437.55934 442.02677 448.98948 453.4569 458.48777">behaviorearlyoninanepisode,byconsideringtheentirehistoryofstatesand</tspan><tspan y="-419.4607" x="142.44855 146.91596 151.38336 154.18053 156.97769 162.00856 167.03943 170.95345 176.55783 179.355 184.38587 188.70233 196.70142 204.52944 207.3266 212.35747 217.38835 223.15372 228.18459 235.6202 240.0876 245.11847 247.91564 255.3412 258.13835 266.13743 270.36335 275.2433 279.7107 284.74159 287.53874 292.5696 297.03703 299.83418 302.63133 310.6304 313.42756 318.4584 322.92585 327.9567 330.75386 333.551 336.90159 344.8906 347.68775 352.71864 360.15425 365.18513 367.98228 373.01313 378.044 382.5114 390.5105 394.9779 400.0088 405.03968 407.83683 412.1533 417.18418 422.94953 427.41694 432.4478 440.4469 444.9143 449.38175 455.13703 459.60444">actions,theymightbeabletoeventuallyidentifythehiddencontextandactas</tspan></text>
<text xml:space="preserve" transform="matrix(1.0054849 0 -0 .9945449 0 792)" font-size="10.017244" font-family="NimbusRomNo9L"><tspan y="-406.63627" x="143.0812 145.866 150.87462 157.79653 162.09392 167.10254 172.11115 176.5588 179.89455 185.16362 192.2959 197.30452 202.31313 205.09792 210.10654 215.68614 224.34105 231.27298 236.2816 239.61734 244.47571 249.33406 256.25599 259.04078 264.0494 268.49705 273.7661 278.77476 283.7834 287.11915 292.12776 297.13639 299.9212 302.706 307.0034 314.48628 317.27107 325.06449 327.84928 330.6341 335.08174 337.86656 340.65135 345.65998 353.14286 355.92768 360.3753 364.82298 368.1587 373.16734 375.95216 380.9608 388.45368 392.9013 395.68614 400.69477 405.7034 409.03913 411.82395 414.60874 419.61738 427.41078 433.78175 437.1175 444.34996 447.13475 449.91957 457.40245 462.41108">theexpertwould.Weprovethaton-policyimitationlearningalgorithms(withor</tspan></text>
<text xml:space="preserve" transform="matrix(1.005982 0 -0 .9940535 0 792)" font-size="10.022197" font-family="NimbusRomNo9L"><tspan y="-395.86305" x="142.65366 149.88968 152.67586 155.46204 160.47313 165.48424 170.49533 175.767 180.21686 184.6667 189.11656 193.5664 197.46504 203.84917 206.62532 214.12192 221.05727 226.06836 231.07947 235.52931 238.86672 243.87783 248.32767 253.33878 256.12495 263.0603 267.3598 272.3709 277.382 281.83186 285.16926 287.9554 293.7783 298.22816 301.56556 308.50093 313.512 317.96186 320.74803 323.53419 327.98405 333.7969 338.24678 343.25788 348.26896 351.0551 356.06623 361.07734 365.52717 373.02378 375.80995 383.30653 388.31764 392.7675 397.7786 402.78968 405.57585 412.5112 415.29737 420.30845 424.7583 428.65696 435.58229 439.48094 444.49205 447.82945 450.6156 456.99974 462.01084">withoutaccesstoaqueryableexpert)arebetterequippedtohandlethesesortsof</tspan></text>
<text xml:space="preserve" transform="matrix(1.0099505 0 -0 .9901476 0 792)" font-size="10.061732" font-family="NimbusRomNo9L" font-style="italic"><tspan y="-386.40705" x="142.44855 147.47943 151.39344 155.86084 163.12541 168.15628 170.95345 175.98432 178.78148 181.57865 186.04605 191.07692 193.87409 196.67125 203.6239 207.17569 211.64308 216.67397 219.47112 222.26828 226.1823 231.21317 236.24404 239.0412">asymptoticallyrealizable</tspan></text>
<text xml:space="preserve" transform="matrix(1.0099505 0 -0 .9901476 0 792)" font-size="10.061732" font-family="NimbusRomNo9L"><tspan y="-386.40705" x="246.00016 251.03104 254.3816 259.41249 264.44337 267.2405 271.70793 279.53593 285.9352 288.73237 293.76325 298.23066 305.75685 310.78773 313.88673 317.2373 320.58787 325.61875 330.6496 333.44676 336.2439 340.5604 348.08659 355.91459 360.38203 363.17918 368.21003 373.2409 378.2718 382.1858 387.83045 393.97816 399.00904 401.80619 408.20545 411.0026 417.41197 422.4428 426.91026 431.37767 435.84507 440.87596 444.78999 451.74266 456.7735 461.80439">problemsthanoff-policymethods.Thisisbecauseon-</tspan></text>
<text xml:space="preserve" transform="matrix(.99548986 0 -0 1.0045307 0 792)" font-size="9.917666" font-family="NimbusRomNo9L"><tspan y="-370.0146" x="144.51779 149.47663 154.43544 157.19255 159.94966 164.20436 171.67235 176.0758 178.83292 183.79174 188.75057 192.05315 194.81026 197.56737 202.5262 210.24214 216.60929 221.56812 224.8707 229.68077 234.39165 238.7951 243.75394 246.51103 253.97904 256.73616 261.1396 265.54304 268.8456 276.31364 279.07075 286.53877 289.84135 294.24479 298.6482 303.45826 308.2683 312.67176 318.48353 321.7861 325.08869 330.04753 340.27265 343.0298 347.9886 352.39204 355.14918 360.96095 363.71806 368.67689 371.434 374.19114 376.94825 381.35169 384.1088 386.86595 394.33396 398.19194 403.15077 408.10957 413.0684 418.02723 420.78437 423.54148 431.25743 435.66087 440.9272 445.3306 449.73405 452.49119 455.2483 460.20713 465.16596 469.02394">policyalgorithmsprovablylearntorecoverfromtheirinitiallysuboptimalactions,</tspan></text>
<text xml:space="preserve" transform="matrix(1.0054849 0 -0 .9945449 0 792)" font-size="10.017244" font-family="NimbusRomNo9L"><tspan y="-362.76094" x="142.72418 149.95664 154.96526 157.75005 160.53484 167.46677 172.47539 175.57071 178.89643 182.23217 187.24079 192.2494 195.0342 197.81899 202.12639 209.6193 217.4127 221.86037 224.64516 229.65377 234.66239 239.671 246.05199 248.83678 252.17252 256.62019 261.06785 266.34693 269.1317 274.14036 278.588 281.3728 287.1928 291.08955 296.09819 301.1068 306.11543 311.12406 313.90888 316.69367 324.48707 328.93473 334.2138 339.22245 343.6701 347.5668 352.83589 357.28355 361.7312 364.516 367.3008 372.30943 377.31806 383.70909 388.1567 394.5377 397.3225 402.33116 407.33976 412.3484 417.35704 424.8499 427.63475 432.64338 436.95079 444.44367 448.8913 453.33897 461.13236">whileoff-policymethodstreattheirsuboptimalpastactionsasthoughtheycame</tspan></text>
<text xml:space="preserve" transform="matrix(1.0014989 0 -0 .9985034 0 792)" font-size="9.977532" font-family="NimbusRomNo9L"><tspan y="-350.39738" x="143.65067 146.97319 150.2957 155.28447 165.5314 168.30515 173.29392 180.19837 184.47872 189.46749 194.45626 198.88628 202.2088 204.98255 210.55998 216.65625 221.64502 224.41878 230.78444 235.77321 239.09574 241.86948 246.2995 253.7627 261.5252 265.95527 270.94404 273.71778 277.04029 281.47035 285.3516 288.12538 294.49104 298.92106 305.27677">fromtheexpert.Thisoftenmanifestsasa</tspan></text>
<text xml:space="preserve" transform="matrix(1.0014989 0 -0 .9985034 0 792)" font-size="9.977532" font-family="NimbusRomNo9L" font-style="italic"><tspan y="-350.39738" x="312.19004 314.96379 319.95256 322.72633 327.00669 331.99546 334.76924 339.758">latching</tspan></text>
<text xml:space="preserve" transform="matrix(1.0014989 0 -0 .9985034 0 792)" font-size="9.977532" font-family="NimbusRomNo9L"><tspan y="-350.39738" x="347.2275 352.21629 356.6463 361.63508 365.86555 370.8543 373.62809 378.61686 381.93937 387.79618 394.70066 399.68943 404.11946 406.64378 411.49287 418.39735 421.71986 426.14988 431.13865 435.5687 438.34245 441.1162 443.88999 446.66377 451.65254 459.12568 464.11445">behavior:anaiverepetitionof</tspan></text>
<text xml:space="preserve" transform="matrix(1.0019981 0 -0 .998006 0 792)" font-size="9.982505" font-family="NimbusRomNo9L"><tspan y="-339.64125" x="143.57912 148.57036 153.0026 156.88578 162.14656 166.5788 171.01102 173.78617 176.56131 181.55255 186.5438 190.427 196.0172 204.65206 211.56993 216.00217 220.99341 225.98467 230.9759 235.96715 240.39939 245.66017 249.94266 254.93392 259.92518 264.3574 267.68159 270.4567 278.22309 282.6553 287.64659 290.4217 296.8005 299.57563 307.05253 313.9704 316.7455 321.6469 329.1238 334.11506 338.5473 343.53855 348.5298 351.30494 356.56568 361.55693 366.5482 374.31459 378.74684 381.52195 389.00883 391.78395 396.77519 401.20744 406.4682 410.3514 415.34266 420.08433 429.77735 432.55247 437.5437 441.97596 447.2467 450.02183 455.01307 459.4453 462.76948">pastactions.Weconductexperimentsinatoybanditdomainthatshowthatthere</tspan></text>
<text xml:space="preserve" transform="matrix(1.0094553 0 -0 .9906333 0 792)" font-size="10.056799" font-family="NimbusRomNo9L"><tspan y="-331.15684" x="142.51844 146.8328 151.8612 154.65699 158.56908 163.81873 167.73082 172.75922 177.22444 180.57337">existsharp</tspan></text>
<text xml:space="preserve" transform="matrix(1.0094553 0 -0 .9906333 0 792)" font-size="10.056799" font-family="NimbusRomNo9L" font-style="italic"><tspan y="-331.15684" x="188.05785 193.08625 198.11464 203.14304 207.05513 213.97422 216.77 220.53124 225.55963 230.58803 234.50012 237.2959 240.09169 242.88748 247.91588 252.94428">phasetransitions</tspan></text>
<text xml:space="preserve" transform="matrix(1.0094553 0 -0 .9906333 0 792)" font-size="10.056799" font-family="NimbusRomNo9L"><tspan y="-331.15684" x="259.3131 264.34153 270.1443 277.40528 282.4337 286.89894 289.69474 294.72315 299.18836 304.99113 310.01954 313.11708 316.46598 319.8149 324.84333 329.87174 332.6675 335.46333 339.77769 347.25996 351.7252 356.7536 361.782 365.13093 370.15934 374.62458 379.08979 384.1182 388.58345 394.94938 399.4146 402.76353 409.6826 414.14784 419.17625 421.97206 428.8911 431.68693 439.1692 446.99336 451.4586 454.2544 458.7196">ofwhetheroff-policyapproachesareabletomatch</tspan></text>
<text xml:space="preserve" transform="matrix(.9949875 0 -0 1.0050378 0 792)" font-size="9.912662" font-family="NimbusRomNo9L"><tspan y="-315.5563" x="144.59076 148.84329 153.79962 158.75597 163.15718 166.4581 171.71183 176.66815 181.06938 184.37029 187.67119 192.62752 195.92844 203.64049 208.04172 212.99805 217.39928 224.2985 228.69972 232.55576 237.51209 245.22414 250.18048 252.9362 257.89253 260.64826 263.40397 267.80519 272.2064 274.96214 277.71784 282.02989 287.006 289.76176 297.21607 301.61729 306.5736 311.52995 314.28569 317.58659 321.9878 325.8438 331.09754 333.85328 341.3175 344.0732 349.02955 355.92878 360.8851 365.84144 368.59715 371.89808 376.8544 380.1553 387.86735 390.62309 398.0774 403.03376 407.99009 412.9464 420.40074 425.35707 429.75828 433.05918 436.36009 441.31645 444.61735 452.32939 456.7306 461.68693 466.08815">expertperformanceasymptotically,incontrasttotheuniformlygoodperformance</tspan></text>
<text xml:space="preserve" transform="matrix(.995992 0 -0 1.0040243 0 792)" font-size="9.922668" font-family="NimbusRomNo9L"><tspan y="-305.00956" x="144.44493 149.40627 155.21103 160.17237 165.13372 168.43796 173.39929 178.36063 181.11913 183.87764 188.13446 195.59632 200.00197 204.96332 209.92465 213.2289 218.19023 222.59589 227.00154 231.96289 236.36855 240.22847 245.805 254.36826 261.2744 266.23576 270.64143 278.36128 283.32258 288.2839 292.14384 294.9023 298.20658 302.61225 305.37074 312.2769 315.03538 319.9967 324.40235 329.66136 334.62269 342.0845 345.94444 350.10203 354.90458 359.31025 362.6145 367.02018 372.27915 376.6848 381.64613 386.60746 389.36595 392.12446 397.08576 402.0471 407.0084 411.96974 418.33015 422.7358 427.69715 432.65846 435.41694 438.7212 443.68254 448.94154 451.7 456.10569 459.96559 464.9269 468.78684">ofon-policyapproaches.Wedemonstratethatonseveralcontinuouscontroltasks,</tspan></text>
<text xml:space="preserve" transform="matrix(.98994949 0 -0 1.0101526 0 792)" font-size="9.862471" font-family="NimbusRomNo9L"><tspan y="-292.3598" x="145.32662 150.25785 155.18907 158.47327 163.4045 168.33573 171.0775 173.81928 178.05028 185.38796 189.76689 194.69812 199.62935 202.91356 207.84479 212.22373 216.60266 221.53389 225.91283 232.16564 236.54457 239.82878 246.62401 251.00296 255.93419 258.67594 265.46134 268.2031 275.55067 280.4819 284.3184 291.11366 296.0449 298.78666 302.62318 305.36494 310.29618 313.58036 320.92793 323.66969 331.0074 333.74916 338.6804 343.05934 347.99058 350.73234 353.4741 356.75828 364.10585 366.8476 371.77885 378.5741 382.95304 387.88429 392.81553 395.55729 399.7784 404.70967 409.86775 416.98844 421.91969 424.66145 427.4032 434.19847 439.1297 442.15748 445.45155 448.73576 453.667 458.59825 461.34 464.08177 468.31275">on-policyapproachesareabletousehistorytoidentifythecontextwhileoff-policy</tspan></text>
<text xml:space="preserve" transform="matrix(1 0 -0 1 0 792)" font-size="9.9626" font-family="NimbusRomNo9L"><tspan y="-284.419" x="143.866 148.2894 153.27069 158.25199 161.56954 166.55083 170.97423 175.39763 180.37892 184.80233 191.16843 195.59183 200.01523 202.78484 207.76613 212.18953 214.95914 217.72875 225.20069 230.18198 234.60538 237.92293 241.24048 246.22177 249.53932">approachesactuallyperform</tspan></text>
<text xml:space="preserve" transform="matrix(1 0 -0 1 0 792)" font-size="9.9626" font-family="NimbusRomNo9L" font-style="italic"><tspan y="-284.419" x="259.78 266.42506 271.40635 275.18217 279.05763">worse</tspan></text>
<text xml:space="preserve" transform="matrix(1 0 -0 1 0 792)" font-size="9.9626" font-family="NimbusRomNo9L"><tspan y="-284.419" x="285.971 293.164 298.1453 302.5687 310.04066 315.02195 317.54249 322.37434 326.79774 334.26969 338.69309 343.1165 347.5399 351.9633 355.83876 362.20487 364.97447 372.4464 377.4277 380.1973 384.07276 386.84236 391.82365 395.14118 399.47489">whengivenaccesstohistory.</tspan></text>
<text xml:space="preserve" transform="matrix(1 0 -0 1 0 792)" font-size="11.9552" font-family="NimbusRomNo9L" font-weight="bold"><tspan y="-250.86002" x="108.000019 125.932819 130.58339 137.23049 141.21157 146.30448 152.28208 158.92917 165.57627 170.88437 174.86545 178.189 184.1666">1Introduction</tspan></text>
<text xml:space="preserve" transform="matrix(1.0099505 0 -0 .9901476 0 792)" font-size="10.061732" font-family="NimbusRomNo9L"><tspan y="-229.9455" x="106.58046 113.84504 121.65294 126.68381 131.71468 135.6287 138.42586 142.89325 145.69042 150.15782 157.95568 162.42308 166.33708 170.2511 175.28197 183.10999 188.14087 190.93802 193.73519 198.76607 206.57398 209.37114 217.16899 224.99701 230.02788 234.49529 242.30319 247.33406 253.46166 256.25883 261.2897 268.52409 275.68803 280.7189 284.06947 291.87736 294.6745 302.48243 305.27955 313.10758 315.90473 318.70188 323.16929 325.96644 328.76359 333.79447 341.5923 344.38945 348.85688 353.32429 356.67488 361.70573 364.50288 369.53376 377.34165 380.6922 384.0428 390.1905 396.30805 399.1052 405.79624 408.59339 413.62428 418.09169 423.66584 426.46299 431.49388 438.72825 441.5254 445.99284 450.46025 453.8108 458.84169 463.30909 469.43669 473.9041 478.93498 486.7429 489.54 494.5709">Anunstatedassumptioninmuchoftheworkinimitationlearning(IL)isthatthelearnerandthe</tspan><tspan y="-218.92795" x="106.93593 111.25241 116.28328 121.31414 125.781558 129.13211 135.13898 140.16985 144.43602 149.32602 156.99308 161.46047 165.92787 170.39528 174.86267 178.77669 185.9004 188.69756 196.92807 199.72524 204.7561 212.43321 216.34723 220.81462 228.64264 236.3097 240.2237 243.02086 247.48827 250.28543 257.96257 260.7597 265.79057 269.14115 274.172 277.52259 285.35063 289.81803 292.61518 295.41233 300.44319 305.47407 313.26185 322.3677 325.16487 327.962 336.1925 341.2234 346.01277 353.2773 357.74476 361.0953 364.4459 369.47676 375.47355 379.94096 384.97184 390.00273 395.03358 400.06446 408.30503 412.21907 415.0162 419.4836 422.28077 425.0779 428.99195 431.7891 434.58625 439.05366 443.52107 449.51786 457.3459 462.37675 467.40763 471.87504 474.67219 478.5862 484.49244 487.28959 492.32048 495.1176">experthaveaccesstothesamestateinformation.Withpowerfulenoughstatisticalmodels,this</tspan></text>
<text xml:space="preserve" transform="matrix(1.0054849 0 -0 .9945449 0 792)" font-size="10.017244" font-family="NimbusRomNo9L"><tspan y="-206.99117" x="107.410869 111.85852 115.75523 119.65195 124.66057 132.45398 137.4626 140.24739 143.03218 148.0408 155.52367 160.53229 163.31708 167.76473 172.21237 176.66002 183.02097 188.02957 194.40053 197.18532 204.6682 207.45299 212.4616">assumptionplacesusinthe</tspan></text>
<text xml:space="preserve" transform="matrix(1.0054849 0 -0 .9945449 0 792)" font-size="10.017244" font-family="NimbusRomNo9L" font-style="italic"><tspan y="-206.99117" x="219.37676 222.90282 227.35047 232.35909 235.14388 237.92867 241.82537 246.83399 251.84259 254.62738">realizable</tspan></text>
<text xml:space="preserve" transform="matrix(1.0054849 0 -0 .9945449 0 792)" font-size="10.017244" font-family="NimbusRomNo9L"><tspan y="-206.99117" x="261.54945 265.44618 269.8938 272.67863 275.4634 278.24824 283.25688 290.73976 298.21263 300.9974 303.5017 307.94938 313.52897 316.31376 321.3224 328.23429 331.01908 338.8125 341.5973 344.3821 348.82975 351.61457 356.6232 362.43318 366.88084 371.3285 378.81138 383.259 387.70668 390.4915 395.5001 399.94776 402.73255 405.51737 412.99024 417.99888 422.4465 427.45515 431.71247 436.57084 443.48274 446.26753 449.05235 453.9608 460.8827 463.6675 468.67616 475.59803 479.89543 484.90406 489.9127 494.36033 497.69609 500.48088">setting&#x2013;i.e.theimitatorcanactuallybehaveliketheexpert.</tspan></text>
<text xml:space="preserve" transform="matrix(1.0099505 0 -0 .9901476 0 792)" font-size="10.061732" font-family="NimbusRomNo9L"><tspan y="-196.89287" x="106.93593 110.28648 118.29562 123.32649 126.67705 131.14446 135.61186 138.40903 141.20619 145.67359 153.10919 158.14008 162.92946 170.19403 174.4099 179.28983 183.75724 186.71538 192.32984 196.79724 204.80638 209.12285 214.15372 219.18459 223.652 227.00255 232.77799 240.606 243.40317 248.43404 253.4649 259.23027 264.26115 268.53739 273.41734 280.863 288.691 293.7219 297.07249 304.5081 307.30525 312.33613 315.68669 320.71757 324.0681 331.89616 336.36357 339.1607 341.95787 346.98875 354.99787 357.795 362.8259 367.2933 375.2924 378.08955 383.12043 390.5661 393.36326 397.83067 402.2981 405.64866 410.67955 415.14695 421.46574 426.49659 431.52748 435.99488 439.9089 447.01249 452.45588 457.48677 463.8055 468.13209 473.16294 477.63038 485.45838 490.48927 493.2864 497.7538">Inpracticehowever,anexpertmighthavemoreinformationthanthelearnerdoes.Forexample,</tspan></text>
<text xml:space="preserve" transform="matrix(1.005982 0 -0 .9940535 0 792)" font-size="10.022197" font-family="NimbusRomNo9L"><tspan y="-185.14499" x="107.35779 111.80765 119.30425 123.60378 128.61489 133.62598 138.07584 141.41323 146.68489 151.696 156.70709 159.49327 162.26943 166.57897 174.06555 181.86284 184.649 189.66011 194.6712 199.94289 204.95398 211.88933 214.6755 218.0129 222.46276 225.24893 230.26003 234.70989 242.19647 244.98264 252.47924 256.3779 259.16404 266.9613 271.9724 274.75859 279.2084 281.99458 284.78074 289.79185 297.28843 304.52449 307.31065 310.0968 317.58338 322.59449 325.9319 328.4775 333.48863 336.27476 339.0609 343.3604 348.37153 352.82139 360.30796 364.7578 369.20768 373.65754 378.10737 382.006 388.39018 391.17634 398.6729 402.57157 405.35774 409.8076 412.59376 419.51908 424.53019 428.98005 432.3174 437.32853 440.66593 447.60127 452.61238 457.06224 459.8484 464.8595 472.35609 477.3672 481.26585 485.71568 493.20228 495.98844">anexpertpolicymightbetrainedinsimulationwithprivilegedaccesstostatebeforebeingusedto</tspan></text>
<text xml:space="preserve" transform="matrix(.98994949 0 -0 1.0101526 0 792)" font-size="9.862471" font-family="NimbusRomNo9L"><tspan y="-171.3949" x="109.09648 112.93298 117.86422 122.795459 127.17439 130.45859 135.38983 138.13159 141.9681 148.76334 155.55858 158.30036 162.67929 167.05825 170.34244 175.27367 179.6526 185.3531 190.28433 195.21556 197.95734 200.69911 204.93012 212.27764 215.01941 219.95064 224.32959 229.48766 234.41889 239.35012 242.09189 249.43943 254.37065 258.7496 265.0024 269.38136 273.76029 278.13923 282.51817 286.35469 292.60749 295.34925 302.6968 309.50193 313.33845 318.26969 323.20094 327.0374 331.41636 336.57444 341.50569 347.2062 350.4904 354.86933 359.24827 361.99003 366.92127 370.20549 374.5844 378.42094 383.97349 389.99946 394.9307 397.67247 403.92527 407.20948 411.5884 415.96736 418.7091 423.64036 430.4356 435.36686 439.7458 445.9986 450.37757 455.3088 458.05058 462.88319 467.81443 472.19337 479.54093 483.37745 488.3087 492.68763 497.06657 501.4455 505.282">supervisealearnerpolicythatonlyhasaccesstoasubsetoffeatures.Thisrecipehasenjoyedsuccess</tspan></text>
<text xml:space="preserve" transform="matrix(1.0099505 0 -0 .9901476 0 792)" font-size="10.061732" font-family="NimbusRomNo9L"><tspan y="-163.8392" x="106.93593 109.73309 117.22908 122.25995 127.29082 135.11884 139.58625 142.3834 147.41428 153.80348 157.15404 160.5046 165.53546 175.82862 183.65663 188.6875 191.48467 194.28183 199.3127 206.8087 211.83957 214.63674 219.10414 224.13501 229.16588 231.96305 236.99391 244.48992 251.75449 254.55164 257.3488 264.85484 269.8857 274.9166 278.8306 281.62776 286.09519 290.5626 293.35975 297.82716 304.2063 307.5569 314.26808 319.29893 324.3298 329.3607 334.39155 339.42243 344.45329 347.80387 355.29988 359.76728 365.0396 369.50703 372.29414 374.80958 379.80018 384.83106 389.86195 394.8928 399.92369 403.27424 408.2548 411.05195 418.54795 423.01539 428.04624 430.84339 435.87428 440.90513 445.936 453.76405 458.7949 463.82579 470.215 475.24586 478.59645 481.14204 486.17289 488.97004 494.00093">indomainsfrommotionplanningwithobstacles[Choudhuryetal.,2018],toautonomousdriving</tspan></text>
<text xml:space="preserve" transform="matrix(1 0 -0 1 0 792)" font-size="9.9626" font-family="NimbusRomNo9L"><tspan y="-151.316" x="108 111.31754 117.9626 122.9439 127.367298 134.83924 139.26264 144.52289 148.94629 151.7159 154.20655 159.18784 164.16913 169.15042 174.13172 179.113 182.43056 187.41185 190.18146 197.6534 200.423 204.69696 209.67826 214.65955 219.08295 226.55489 229.3245 234.30579 238.72919 243.71048 251.46138 256.4427 259.21229 261.98188 266.96318 274.43513 277.75267 283.8398 288.2632 295.17729 299.60069 304.86094 309.28434 312.05393 314.5446 319.5259 324.5072 329.4885 334.4698 339.45109 344.4324 351.47596 356.45726 364.20817 368.63157 374.43977 378.86317 384.1234 388.5468 391.3164 393.80708 398.7884 403.76969 408.75099 413.73228 418.71357 422.0311">[Chenetal.,2019],toleggedlocomotion[Leeetal.,2020,Kumaretal.,2021].</tspan></text>
<text xml:space="preserve" transform="matrix(.99899956 0 -0 1.0010015 0 792)" font-size="9.952632" font-family="NimbusRomNo9L"><tspan y="-134.793" x="108.10816 114.74657 119.16554 123.58451 128.00348 132.9798 138.2348 141.00164 145.97795 150.39693 155.37325 158.68749 163.10645 165.87329 168.64012 173.0591 177.47808 182.73307 189.81934 194.79566 198.1099 205.57437 210.55069 214.96967 221.3294 225.74839 229.61997 232.3868 236.80577 241.78209 244.54892 247.31577 251.18735 256.16368 260.58265 268.04713 272.46607 277.4424 282.41874 285.73295 290.70927 295.6856 302.5927 305.90696 310.32594 314.1975 319.17384 321.94065 324.7075 331.06724 334.38145 339.35777 345.16017 349.03175 354.00807 358.42704 362.84599 367.26496 371.13655 375.00813 378.32237 383.29869 386.06553 388.83235 396.2869 399.0537 406.79689 409.56373 412.33058 416.74955 419.51637 422.2832 427.25953 434.724 439.14299 446.60743 450.8771 455.85346 460.82978 465.24876 468.56297 473.81794 476.58479 481.5611 485.98008 491.23506 496.2114 500.63035">Recenttheoreticalworkhasestablished&#x201c;no-go&#x201d;resultsforsuccessfullyimitatinganexpertthathas</tspan></text>
<text xml:space="preserve" transform="matrix(1.0099505 0 -0 .9901476 0 792)" font-size="10.061732" font-family="NimbusRomNo9L"><tspan y="-125.25304" x="106.93593 111.403339 115.87075 120.33816 124.805568 128.71958 135.29994 138.0971 145.79434 153.62236 158.65323 162.00379 169.1476 171.94477 176.97565 180.3262 185.35707 188.70763 196.53565 201.00305 203.80022 206.59738 211.62825 219.32547 222.67603 228.82375 233.85463 238.32202 243.3529 251.05013 255.51755 260.98106 265.4485 268.24565 270.76109 275.94288 280.97377 286.0046 291.0355 296.06639 301.25825 308.37187 313.40275 321.23075 326.26164 332.27857 336.746 342.2095 346.6769 349.47407 351.9895 357.18138 362.21226 367.24314 372.274 377.30488 380.65544 386.83335 392.98109 398.01194 405.14573 409.61314 414.644 417.9946 425.1284 430.15925 436.18626 438.9834 444.01429 448.4817 451.27885 457.29579 461.76319 464.93266 469.96354 474.9944 482.82243 487.28984 492.3207 495.11787">accesstomoreinformation[Zhangetal.,2020,Kumoretal.,2021].Thecoreoftheirarguments</tspan><tspan y="-114.23549" x="106.93593 109.73309 117.078159 119.87532 124.90618 129.3736 135.6018 142.86638 145.66355 148.46071 153.49158 158.52245 163.55333 169.7916 173.70561 178.17302 182.64041 185.43758 190.46846 198.93038 202.84439 207.87526 215.70328 223.60175 226.9523 231.41971 235.8871 238.68427 243.71514 247.06569 254.96416 257.7613 262.79219 267.25959 273.4878 276.2849 281.3158 286.91014 291.941 296.40843 301.4393 305.9067 310.3741 317.71919 322.04576 327.0766 332.10749 336.5749 339.92549 346.15367 351.18455 355.65196 360.68284 364.949 369.97987 372.777 377.8079 384.59956 389.4292 394.46006 400.68827 403.48539 410.83049 415.86134 420.8922 427.13047 431.59788 436.06529 441.09617 446.12705 450.59446 459.05638 463.52378 466.32093 470.23497 474.4508 481.7154 486.74626 491.21369 494.56425">isthatwithoutseeingsomefeaturethatin&#xfb02;uencesexpertbehaviorbutisnotechoedelsewhere</tspan><tspan y="-103.21793" x="106.93593 109.73309 118.02396 120.82112 125.85199 133.58946 137.50347 140.30063 144.76804 147.5652 152.0326 158.00928 160.80644 165.83731 173.56472 176.36188 180.82929 185.29668 188.64723 193.67812 198.14551 204.75606 212.58409 215.38126 220.41213 225.443 231.50016 236.53102 241.5619 247.62912 252.65999 260.38743 264.85484 269.8857 272.68287 280.41029 283.20744 291.5084 296.53926 299.88984 304.92073 309.95158 314.41899 317.76957 320.5667 328.8576 333.88847 337.23905 342.2699 347.30079 352.33168 360.62254 363.41969 368.45057 376.17799 380.50456 385.5354 390.56629 395.0337 398.38429 404.44145 408.90885 413.37626 416.1734 418.97056 424.00144 429.03233 436.20634 439.00349 447.30445 450.1016 455.13246 462.8599 467.89076 472.92164 476.83567 481.30308 484.65367 489.5336 494.001">inthestate,thelearnermightnotbeabletoproperlygroundtheexpertactionsintheobserved</tspan><tspan y="-92.19938" x="106.93593 110.84994 113.6471 118.11451 120.911678 125.37908 131.4765 134.82706 142.4941 146.96149 151.4289 156.45977 160.37378 164.84119 170.28458 173.08174 178.11261 181.46317 185.93058 189.28113 193.74854 198.7794 203.24681 210.35037 213.14754 217.61495 220.9655 228.79352 232.70754 237.90944 240.7066 245.73749 248.53466 255.0949 260.12577 262.9229 267.9538 272.98469 277.4521 285.11915 287.9163 292.94718 296.29774 301.3286 304.67918 312.5072 316.9746 319.77177 322.5689 327.5998 335.26686 339.73426 344.2017 346.99885 353.55909 358.02653 364.57673 369.04414">state.Incausalinferenceterms,thishiddeninformationactsasan</tspan></text>
<text xml:space="preserve" transform="matrix(1.0099505 0 -0 .9901476 0 792)" font-size="10.061732" font-family="NimbusRomNo9L" font-style="italic"><tspan y="-92.19938" x="376.71943 381.75028 386.78117 391.81205 396.8429 400.75694 405.22434 409.13838 413.6058 418.0732 425.74028 430.20768 435.23857 440.26945 443.0666 448.09745 453.12834 458.1592 463.19007 467.6575">unobservedconfounder</tspan></text>
<text xml:space="preserve" transform="matrix(1.0099505 0 -0 .9901476 0 792)" font-size="10.061732" font-family="NimbusRomNo9L"><tspan y="-92.19938" x="474.44303 481.70759 486.73847 489.5356 494.00303">which</tspan><tspan y="-81.18184" x="106.93593 111.96679 115.317348 119.53322 124.42322 128.89063 133.9215 136.71866 144.08385 146.88101 151.91188 156.37929 161.41016 164.20732 167.00449 172.59882 177.06623 181.53362 184.33078 187.12795 192.15882 200.64087 205.67174 212.48354 215.2807 220.31157 228.23015 233.26103 237.72843 241.64244 244.4396 247.79016 252.25757 260.7396 265.20704 269.67445 274.70533 278.61933 283.08677 289.34513 293.81254 297.71653 300.51365 303.3108 311.13883 315.60624 320.63713 329.1292 332.4798 335.27696 340.3078 348.22639 352.54289 357.57374 362.6046 367.07203 370.4226 376.68098 381.1484 385.6158 388.41297 391.2101 396.241 401.27186 404.62245 413.1548 420.41935 424.88676 428.80079 433.83168 436.6288 439.42597 447.34455 450.1417 455.17256 459.63999 463.55403 471.48265 474.83323 479.30064 483.21467 488.24555 491.0427 493.8398 497.75386">preventsidenti&#xfb01;cationofthedesiredcausalestimand(theexpertaction).Despitetheseresults,</tspan></text>
<text xml:space="preserve" transform="matrix(1 0 -0 1 0 792)" font-size="8.9664" font-family="NimbusRomNo9L"><tspan y="-52.123" x="108 112.4832 116.9664 119.45906 126.18386 132.16445 136.64765 141.13085 144.11666 148.09774 151.08354 155.06462 159.54782 163.5289 169.75159 174.23479 180.9596 187.43334 191.41442 195.89762 198.88343 202.8645 207.59877 210.58458 215.06778 218.05359 222.53679 225.5226 232.49846 236.47954 238.9722 241.46486 245.94806 252.67287 257.65818 260.64399 265.1272 269.10829 273.08937 276.57728 280.0652 282.55784 287.04103 293.76585 298.75117 303.23439 306.7223 309.21495 313.196 320.17189 325.9014 328.8872 335.36097 339.34205 343.82527 346.81108 349.79689 354.7822 362.00914 366.4923 370.97554 375.45875 379.94197 382.92778">36thConferenceonNeuralInformationProcessingSystems(NeurIPS2022).</tspan></text>
<text fill="#929292" xml:space="preserve" transform="matrix(0 -1 1 0 0 792)" font-size="20" font-family="Times"><tspan y="32" x="232 240.88 247.54001 261.98 267.54 277.54 283.1 293.1 303.1 313.1 323.1 328.1 338.1 348.1 358.1 368.1 378.1 388.1 398.1 403.1 408.1 414.76 423.64 431.42 436.42 448.64 463.08003 469.74003 474.74003 479.74003 489.74003 499.74003 504.74003 519.18 528.06 533.62 538.62 548.62 558.62 568.62">arXiv:2208.02225v2  [cs.LG]  22 Oct 2022</tspan></text>
</g>
</svg>
