<?xml version="1.0" encoding="UTF-8" standalone="no"?>
<!DOCTYPE svg PUBLIC "-//W3C//DTD SVG 1.1//EN" "http://www.w3.org/Graphics/SVG/1.1/DTD/svg11.dtd">
<svg xmlns="http://www.w3.org/2000/svg" xmlns:xlink="http://www.w3.org/1999/xlink" version="1.1" width="612pt" height="792pt" viewBox="0 0 612 792">
<g enable-background="new">
<path transform="matrix(1,0,0,-1,108,83.185)" d="M 0 0 L 396 0 L 396 3.985 L 0 3.985 Z "/>
<text xml:space="preserve" transform="matrix(1 0 -0 1 0 792)" font-size="17.2154" font-family="NimbusRomNo9L" font-weight="bold"><tspan y="-678.953" x="127.022 143.27335 148.05924 157.631 162.41689 176.75731 185.365 198.27655 211.67014 221.2419 226.97463 231.76052 246.10094 254.70864 263.79838 277.19197 286.76374 291.54963 296.3355 305.9073 317.8548 324.55158 338.892 343.6779 349.4106 358.0183 363.75105 368.53694 377.14463 391.02027 402.50294 410.14659 418.75428 426.13969 435.71147 440.49736 450.06913 462.98069 471.58839 476.37428">MinimaxOptimalOnlineImitationLearningvia</tspan><tspan y="-659.028" x="237.853 250.28252 257.92616 267.49794 272.2838 280.8915 293.80308 305.28575 311.9825 317.71525 322.50114 336.84156 345.44926 351.18199 355.96788 364.57557">ReplayEstimation</tspan></text>
<path transform="matrix(1,0,0,-1,108,152.36499)" stroke-width=".996" stroke-linecap="butt" stroke-miterlimit="10" stroke-linejoin="miter" fill="none" stroke="#000000" d="M 0 0 L 396 0 "/>
<text xml:space="preserve" transform="matrix(1 0 -0 1 0 792)" font-size="9.9626" font-family="NimbusRomNo9L" font-weight="bold"><tspan y="-603.267" x="149.811 157.5619 162.5432 168.0824 173.6216 178.88185 184.42105 191.61405 196.59534 204.89418">GokulSwamy</tspan></text>
<text xml:space="preserve" transform="matrix(1 0 -0 1 0 792)" font-size="6.9738" font-family="CMSY7" font-style="italic"><tspan y="-606.88308" x="209.875">&#x2217;</tspan></text>
<text xml:space="preserve" transform="matrix(1 0 -0 1 0 792)" font-size="9.9626" font-family="NimbusRomNo9L"><tspan y="-592.35806" x="124.222 130.86705 135.29045 138.608 143.5893 147.86325 152.84455 155.61415 162.5282 171.38495 175.80835 178.57796 181.34757 186.32886 193.8008 200.99379 205.97509 208.49562 213.32747 217.75087 221.06842 224.94388 227.71349 230.4831">CarnegieMellonUniversity</tspan></text>
<text xml:space="preserve" transform="matrix(1 0 -0 1 0 792)" font-size="9.9626" font-family="SFTT1000"><tspan y="-581.44906" x="143.239 148.46936 153.69972 158.93009 164.16045 169.39081 174.62117 179.85153 185.0819 190.31226 195.54262 200.77298 206.00334 211.2337">gswamy@cmu.edu</tspan></text>
<text xml:space="preserve" transform="matrix(1 0 -0 1 0 792)" font-size="9.9626" font-family="NimbusRomNo9L" font-weight="bold"><tspan y="-603.267" x="290.634 297.827 300.49696 305.3786 309.802 317.83189 325.02488 330.00617 333.3237 338.305 342.7284 347.7097 356.00856 360.98985">NivedRajaraman</tspan></text>
<text xml:space="preserve" transform="matrix(1 0 -0 1 0 792)" font-size="6.9738" font-family="CMSY7" font-style="italic"><tspan y="-606.88308" x="366.529">&#x2217;</tspan></text>
<text xml:space="preserve" transform="matrix(1 0 -0 1 0 792)" font-size="9.9626" font-family="NimbusRomNo9L"><tspan y="-592.35806" x="304.849 312.042 321.1777 327.82276 332.24617 335.5637 340.44535 344.86875 347.63835 351.9123">UCBerkeley</tspan></text>
<text xml:space="preserve" transform="matrix(1 0 -0 1 0 792)" font-size="9.9626" font-family="SFTT1000"><tspan y="-581.44906" x="257.664 262.89439 268.12477 273.35514 278.5855 283.8159 289.04627 294.27665 299.50703 304.7374 309.96778 315.19816 320.42854 325.6589 330.88929 336.11967 341.35005 346.5804 351.8108 357.03123 362.2616 367.49198 372.72236 377.95274 383.1831 388.41349 393.64387 398.87425">nived.rajaraman@berkeley.edu</tspan></text>
<text xml:space="preserve" transform="matrix(1 0 -0 1 0 792)" font-size="9.9626" font-family="NimbusRomNo9L" font-weight="bold"><tspan y="-603.267" x="426.279 435.6837 440.66499 443.9825 447.30006 452.83927 457.26268 466.94633 472.83424 477.25764 482.79685">MatthewPeng</tspan></text>
<text xml:space="preserve" transform="matrix(1 0 -0 1 0 792)" font-size="9.9626" font-family="NimbusRomNo9L"><tspan y="-592.35806" x="431.00599 438.19898 447.3347 453.97975 458.40315 461.72068 466.60234 471.02574 473.79533 478.06929">UCBerkeley</tspan></text>
<text xml:space="preserve" transform="matrix(1 0 -0 1 0 792)" font-size="9.9626" font-family="NimbusRomNo9L" font-weight="bold"><tspan y="-553.27" x="139.98899 145.52819 150.50948 156.04868 159.36623 162.13584 167.67504 172.65633 180.68618 187.87917 193.41837 198.39966 203.93886 209.47806 215.01726 220.55646 224.97986">SanjibanChoudhury</tspan></text>
<text xml:space="preserve" transform="matrix(1 0 -0 1 0 792)" font-size="9.9626" font-family="NimbusRomNo9L"><tspan y="-542.361" x="147.95398 154.59903 159.58032 162.89788 167.87917 172.30257 175.07218 180.33243 187.52542 192.50672 195.02725 199.8591 204.2825 207.60005 211.47551 214.24512 217.01473">CornellUniversity</tspan></text>
<text xml:space="preserve" transform="matrix(1 0 -0 1 0 792)" font-size="9.9626" font-family="NimbusRomNo9L" font-weight="bold"><tspan y="-553.27" x="330.722 335.50404 340.48536 347.67835 353.21757 358.75679 363.00086 367.42427 377.1079 383.75297 388.73426 393.71556 399.25477 403.67817 406.44776">J.AndrewBagnell</tspan></text>
<text xml:space="preserve" transform="matrix(1 0 -0 1 0 792)" font-size="9.9626" font-family="NimbusRomNo9L"><tspan y="-542.361" x="267.92799 275.12098 280.10227 283.4198 288.4011 291.71864 298.6327 301.95024 306.93153 311.9128 316.74467 321.4769 325.9003 328.6699 331.43949 336.42079 343.89274 348.31614 353.29743 360.76939 367.41444 371.83784 375.15538 380.13667 384.4106 389.3919 392.1615 399.07557 407.9323 412.3557 415.1253 417.8949 422.8762 430.34815 437.54115 442.52244 445.04298 449.87483 454.29823 457.61576 461.4912 464.2608 467.0304">AuroraInnovationandCarnegieMellonUniversity</tspan></text>
<text xml:space="preserve" transform="matrix(1 0 -0 1 0 792)" font-size="9.9626" font-family="NimbusRomNo9L" font-weight="bold"><tspan y="-514.181" x="155.59598 162.24103 167.78023 170.54984 177.74283 182.16623 187.42649 192.96569 196.28324 200.55719 205.43886 209.86226 217.8921 227.35659">ZhiweiStevenWu</tspan></text>
<text xml:space="preserve" transform="matrix(1 0 -0 1 0 792)" font-size="9.9626" font-family="NimbusRomNo9L"><tspan y="-503.27204" x="138.62398 145.26903 149.69243 153.00998 157.99127 162.26523 167.24652 170.01613 176.93018 185.78693 190.21033 192.97994 195.74954 200.73084 208.20278 215.39577 220.37706 222.8976 227.72945 232.15285 235.4704 239.34586 242.11547 244.88507">CarnegieMellonUniversity</tspan></text>
<text xml:space="preserve" transform="matrix(1 0 -0 1 0 792)" font-size="9.9626" font-family="NimbusRomNo9L" font-weight="bold"><tspan y="-514.181" x="286.61299 291.59428 294.36387 299.34516 304.88438 308.2019 313.1832 320.65516 325.63645 328.40605 333.38734">JiantaoJiao</tspan></text>
<text xml:space="preserve" transform="matrix(1 0 -0 1 0 792)" font-size="9.9626" font-family="NimbusRomNo9L"><tspan y="-503.27204" x="286.468 293.66099 302.7967 309.44175 313.86515 317.18269 322.06434 326.48774 329.25733 333.53129">UCBerkeley</tspan></text>
<text xml:space="preserve" transform="matrix(1 0 -0 1 0 792)" font-size="9.9626" font-family="NimbusRomNo9L" font-weight="bold"><tspan y="-514.181" x="375.115 382.8659 387.8472 393.3864 398.92564 403.90693 411.9368 419.1298 424.11109 432.40995 436.83335 442.37257 447.35386 452.89308 458.43229 462.85569 467.83699">KannanRamchandran</tspan></text>
<text xml:space="preserve" transform="matrix(1 0 -0 1 0 792)" font-size="9.9626" font-family="NimbusRomNo9L"><tspan y="-503.27204" x="398.223 405.416 414.5517 421.19676 425.62016 428.93769 433.81935 438.24275 441.01234 445.2863">UCBerkeley</tspan></text>
<text xml:space="preserve" transform="matrix(1 0 -0 1 0 792)" font-size="11.9552" font-family="NimbusRomNo9L" font-weight="bold"><tspan y="-462.09104" x="283.758 292.38966 299.03675 303.68733 307.6684 312.9765 318.9541 324.2622">Abstract</tspan></text>
<text xml:space="preserve" transform="matrix(1.0069757 0 -0 .9930726 0 792)" font-size="10.032096" font-family="NimbusRomNo9L"><tspan y="-441.9788" x="142.8694 150.11258 155.12863 157.91756 160.70648 165.72254 172.66474 175.45366 183.25864 186.04756 188.83649 193.29074 196.07967 198.85857 203.8746 211.37862 214.16754 218.6218 223.07605 226.41674 231.43279 234.22171 239.23777 246.74178 249.5307 255.9111 258.7 263.71607 270.65827 275.67433 279.01499 284.031 289.04707 291.83598 296.29023 306.58317 311.59919 317.4178 322.4338 327.20909 336.93019 341.9462 346.40046 350.30296 355.57984 358.36878 365.86274 373.6677 376.4566 384.26158 387.0505 393.9927 398.29649 403.31254 408.32856 412.7828 416.12348 421.40037 426.4164 430.87065 438.6756 443.69166 448.70768 452.61018 455.3991 458.73979 463.19404">Onlineimitationlearningistheproblemofhowbesttomimicexpertdemonstra-</tspan></text>
<text xml:space="preserve" transform="matrix(1.0099505 0 -0 .9901476 0 792)" font-size="10.061732" font-family="NimbusRomNo9L"><tspan y="-432.26686" x="142.44855 145.24571 148.04288 153.07375 158.10463 162.01863 167.44193 172.4728 175.02848 179.90842 184.37583 192.22399 196.69139 201.15879 205.62619 210.0936 214.0076 220.74897 223.54613 231.39429 234.19145 239.22232 246.50702 250.97441 255.61289 260.64375 263.4409 266.79148 271.82237 276.8532 284.68125 289.14866 294.17955 299.79396 304.82484 311.00273 315.47016 323.3183 327.7857 332.2531 336.72056 341.7514 345.102 349.5694 352.36656 359.66133 363.57536 366.3725 374.2005 379.23139 382.02854 386.49595 389.2931 394.32398 397.1312 403.76188 409.3562 412.7068 415.50395 420.5348 426.7127 433.87666 438.90754 442.2581 450.10624 455.13713 459.60453">tions,givenaccesstotheenvironmentoranaccuratesimulator.Priorworkhas</tspan></text>
<text xml:space="preserve" transform="matrix(1.0074722 0 -0 .9925834 0 792)" font-size="10.037041" font-family="NimbusRomNo9L"><tspan y="-420.21559" x="142.79898 146.70339 151.72191 156.48949 163.73622 171.2339 174.02419 179.04271 183.49915 188.7686 191.5589 199.06659 201.85689 206.8754">shownthatinthe</tspan></text>
<text xml:space="preserve" transform="matrix(1.0074722 0 -0 .9925834 0 792)" font-size="10.037041" font-family="NimbusRomNo9L" font-style="italic"><tspan y="-420.21559" x="213.8074 216.59769 221.61621 226.63472 231.65325 234.44353 237.23383">in&#xfb01;nite</tspan></text>
<text xml:space="preserve" transform="matrix(1.0074722 0 -0 .9925834 0 792)" font-size="10.037041" font-family="NimbusRomNo9L"><tspan y="-420.21559" x="244.16954 248.07395 252.53038 260.3392 265.35774 268.14805 275.08366 278.42597 282.73188 287.7504 290.5407 298.34953 302.80598 307.8044 312.11033 317.12886 321.5853 326.04176 331.3112 339.12 344.13856 351.94737 356.4038 361.42234 366.6918 374.5006 378.95704 381.74736 386.2038 391.22233 394.01264 399.03117 406.52888 410.9853 415.44175 420.46028 423.25059 427.45613 432.3241 436.78056 443.17414 447.94175 452.3982 455.18849 460.20704">sampleregime,exactmomentmatchingachievesvalue</tspan></text>
<text xml:space="preserve" transform="matrix(.9964938 0 -0 1.0035185 0 792)" font-size="9.92767" font-family="NimbusRomNo9L"><tspan y="-404.76588" x="144.37221 148.78008 153.74391 158.70775 161.21945 165.93509 170.34297 173.10286 177.51074 182.47458 186.88246 193.79212 196.552 204.0176 206.77748 211.74132 218.6609 222.90995 227.87378 232.83762 237.2455 240.5514 245.823 250.78684 255.75067 258.51057 261.27046 265.5294 269.838 275.43724 282.60499 287.32066 294.48844 298.6481 303.46305 307.8709 310.76979 315.7634 318.5233 325.98893 328.7488 333.71266">equivalencetotheexpertpolicy.However,inthe</tspan></text>
<text xml:space="preserve" transform="matrix(.9964938 0 -0 1.0035185 0 792)" font-size="9.92767" font-family="NimbusRomNo9L" font-style="italic"><tspan y="-404.76588" x="340.62834 345.59217 350.556 353.3159 356.07579">&#xfb01;nite</tspan></text>
<text xml:space="preserve" transform="matrix(.9964938 0 -0 1.0035185 0 792)" font-size="9.92767" font-family="NimbusRomNo9L"><tspan y="-404.76588" x="362.98875 366.8506 371.25849 378.9822 383.94609 386.70597 393.61564 396.9215 401.18049 406.14433 408.9042 416.62794 421.03584 426.02946 430.18916 434.99415 439.402 446.87757 449.63746 455.44514 460.409 465.37284">sampleregime,evenifone</tspan></text>
<text xml:space="preserve" transform="matrix(1.0099505 0 -0 .9901476 0 792)" font-size="10.061732" font-family="NimbusRomNo9L"><tspan y="-399.2142" x="142.44855 147.47943 151.94683 158.34609 163.37697 170.88303 175.9139 180.94477 183.74193 186.5391 194.36711 197.16428 201.63169 206.09909 208.89626 211.6934 216.72429 224.2404 228.70781 232.05837 235.40892 240.43979 243.39794 248.39862 252.86603 260.69407 265.72496 268.5221 271.87266 274.6698 279.1372 283.60466 288.87699 293.66636 298.13377 301.48435 304.2815 308.7489 313.7798 318.2472 325.18983 329.65724 334.12464 341.64079 344.43794 348.90534 353.37275 360.8889 363.686 371.19209 378.14476 383.17564 387.64305 390.99363 394.34419 399.37507 402.72563 410.55366 415.02107 420.05195 424.51936 431.47203 436.45259 440.92 448.42607 451.2232 456.2541 460.7215">hasnooptimizationerror,empiricalvariancecanleadtoaperformancegapthat</tspan><tspan y="-387.13926" x="142.44855 146.36257 150.82997 155.29737 158.09453 162.56194 169.34355 176.60811 179.40528 182.20244">scaleswith</tspan></text>
<text xml:space="preserve" transform="matrix(1 0 -0 1 0 792)" font-size="9.9626" font-family="CMMI10" font-style="italic"><tspan y="-383.325" x="191.987">H</tspan></text>
<text xml:space="preserve" transform="matrix(1 0 -0 1 0 792)" font-size="6.9738" font-family="CMR7"><tspan y="-386.94" x="201.078">2</tspan></text>
<text xml:space="preserve" transform="matrix(1 0 -0 1 0 792)" font-size="9.9626" font-family="CMMI10" font-style="italic"><tspan y="-383.325" x="205.547 209.97039">/N</tspan></text>
<text xml:space="preserve" transform="matrix(1 0 -0 1 0 792)" font-size="6.9738" font-family="CMR7"><tspan y="-381.83003" x="217.98 221.52269 225.70697">exp</tspan></text>
<text xml:space="preserve" transform="matrix(1.0099505 0 -0 .9901476 0 792)" font-size="10.061732" font-family="NimbusRomNo9L"><tspan y="-387.13926" x="231.19944 234.54999 239.58086 245.79901 250.8299 255.29729 260.32817 264.59434 269.6252 272.42237 277.45326 280.8038 285.2712 290.93595 295.40339 298.20054 303.23139 308.26228 311.05943 316.0903 323.98875 328.45619 333.48704">forbehavioralcloningand</tspan></text>
<text xml:space="preserve" transform="matrix(1 0 -0 1 0 792)" font-size="9.9626" font-family="CMMI10" font-style="italic"><tspan y="-383.325" x="344.777 353.31498">H/</tspan></text>
<text xml:space="preserve" transform="matrix(1 0 -0 1 0 792)" font-size="9.9626" font-family="CMEX10"><tspan y="-391.33103" x="358.29603">&#xfffd;</tspan></text>
<path transform="matrix(1,0,0,-1,368.258,400.47)" stroke-width=".398" stroke-linecap="butt" stroke-miterlimit="10" stroke-linejoin="miter" fill="none" stroke="#000000" d="M 0 0 L 20.631 0 "/>
<text xml:space="preserve" transform="matrix(1 0 -0 1 0 792)" font-size="9.9626" font-family="CMMI10" font-style="italic"><tspan y="-383.325" x="368.258">N</tspan></text>
<text xml:space="preserve" transform="matrix(1 0 -0 1 0 792)" font-size="6.9738" font-family="CMR7"><tspan y="-381.83003" x="376.263 379.8057 383.99">exp</tspan></text>
<text xml:space="preserve" transform="matrix(1.0099505 0 -0 .9901476 0 792)" font-size="10.061732" font-family="NimbusRomNo9L"><tspan y="-387.13926" x="387.92295 391.2735 396.30439 402.52253 407.5534 412.5843 415.38145 418.1786 423.20945 430.54447 438.37248 443.40336 451.23136 455.6988 460.72966">foronlinemoment</tspan><tspan y="-376.12168" x="142.44855 150.27658 154.74398 157.54114 162.00855 167.03942 169.83658 174.86745 179.89833 184.96945 192.23401 197.2649 201.73229 205.08284">matching,where</tspan></text>
<text xml:space="preserve" transform="matrix(1 0 -0 1 0 792)" font-size="9.9626" font-family="CMMI10" font-style="italic"><tspan y="-372.416" x="214.204">H</tspan></text>
<text xml:space="preserve" transform="matrix(1.0099505 0 -0 .9901476 0 792)" font-size="10.061732" font-family="NimbusRomNo9L"><tspan y="-376.12168" x="223.6357 226.43286 232.88243 235.6796 240.71047 247.72348 252.75437 257.78526 261.1358 263.93296 268.40037 273.43125 280.99769 285.4651 290.49598">isthehorizonand</tspan></text>
<text xml:space="preserve" transform="matrix(1 0 -0 1 0 792)" font-size="9.9626" font-family="CMMI10" font-style="italic"><tspan y="-372.416" x="301.037">N</tspan></text>
<text xml:space="preserve" transform="matrix(1 0 -0 1 0 792)" font-size="6.9738" font-family="CMR7"><tspan y="-370.921" x="309.042 312.5847 316.76899">exp</tspan></text>
<text xml:space="preserve" transform="matrix(1.0099505 0 -0 .9901476 0 792)" font-size="10.061732" font-family="NimbusRomNo9L"><tspan y="-376.12168" x="321.0395 323.83665 330.28623 333.08338 338.11424 345.1273 349.04133 351.83845 356.30589 363.30885 368.33973 374.23594 377.03309 382.06394 389.06694 393.39347 398.42436 403.4552 407.92265 411.2732 416.6059 421.63679 426.1042 428.90135 433.36878 437.28279 441.7502 444.54737 450.34294 459.05638">isthesizeoftheexpertdataset.We</tspan></text>
<text xml:space="preserve" transform="matrix(1.0009996 0 -0 .9990015 0 792)" font-size="9.972557" font-family="NimbusRomNo9L"><tspan y="-361.8683" x="143.72234 146.4947 151.48097 154.25336 157.5742 162.56049 167.54676 172.53302 176.96083 183.88179 186.65416 191.64043 198.56139 201.33376 205.76157 210.18938 215.17566 220.16193 222.9343 227.92058 232.90685 239.81781 244.8041">introducethetechniqueof</tspan></text>
<text xml:space="preserve" transform="matrix(1.0009996 0 -0 .9990015 0 792)" font-size="9.972557" font-family="NimbusRomNo9L" font-style="italic"><tspan y="-361.8683" x="250.62148 254.13182 258.55964 263.5459 266.3183 271.30458 278.22557 282.65339 286.5327 289.30509 292.07746 299.27766 304.26396 307.03633 309.8087 314.79499">replayestimation</tspan></text>
<text xml:space="preserve" transform="matrix(1.0009996 0 -0 .9990015 0 792)" font-size="9.972557" font-family="NimbusRomNo9L"><tspan y="-361.8683" x="322.27186 325.04423 332.52366 335.8445 340.27235 345.25865 350.24494 354.67277 361.59373 364.3661 369.3524 372.12477 378.49723 382.92506 390.68373 395.67 398.4324 401.75328 404.52568 408.9535 413.38133 418.64683 423.3838 427.8116 431.13249 433.90486 438.33268 443.31898 447.7468 452.17463 458.03849 463.02476">toreducethisempiricalvariance:by</tspan></text>
<text xml:space="preserve" transform="matrix(.99146357 0 -0 1.0086099 0 792)" font-size="9.877555" font-family="NimbusRomNo9L"><tspan y="-347.60417" x="145.10469 148.39392 152.77954 157.71833 162.10396 166.48958 169.23555 173.62117 178.55995 181.30591 188.74372 192.98119 197.7718 202.15744 206.54306 211.48184 214.2278 216.97377 221.91255 229.35036 233.73598 238.12162 242.50724 247.44602 251.83165 259.27934 263.51679 268.45558 273.39433 277.77998 281.06919 286.31419 290.69984 295.08549 297.83146 300.57743 305.51618 310.45497 316.8062 319.55223 326.99 333.88456 337.7269 340.4729 345.41166 349.7973 354.73606 359.1217 362.96409 365.71006 368.45603 375.3407 379.18309 381.92906 389.61378 394.55256 397.29853 401.68418 404.43016 409.3689 412.26304 417.23146 424.36305 431.25758 435.64323 440.582 448.26673 453.2055 458.14427 460.89024 467.7749">repeatedlyexecutingcachedexpertactionsinastochasticsimulator,wecomputea</tspan></text>
<text xml:space="preserve" transform="matrix(1.0019981 0 -0 .998006 0 792)" font-size="9.982505" font-family="NimbusRomNo9L" font-style="italic"><tspan y="-340.36668" x="143.57912 147.46231 154.66968 159.66094 164.65218 167.42733 172.41857 176.8508">smoother</tspan></text>
<text xml:space="preserve" transform="matrix(1.0019981 0 -0 .998006 0 792)" font-size="9.982505" font-family="NimbusRomNo9L"><tspan y="-340.36668" x="183.44446 187.72695 192.7182 197.70944 202.14168 205.46585 210.72664 215.71788 218.49303 222.37622 225.15137 227.9265 232.35874 235.13388 237.90901 242.90027 250.36717 255.35842 258.13356 262.01676 264.79188 268.11604 270.89118 275.68278 280.674 283.44914 286.22428 291.2155 298.69239 303.12464 307.00785 309.78297 312.55809 320.3245 324.75675 327.53187 334.44975 337.22486 344.6918 352.45817 356.8904 359.66554 364.09779 369.08903 374.66926 377.9934 385.4703 388.24543 393.23667 400.1446 405.13584 408.46 412.89225 416.77546 421.2077 426.19895 430.6312 437.54908 442.5403 448.35014 453.34138 457.77363 461.09779 465.53004">expertvisitationdistributionestimatetomatch.Inthepresenceofpara-</tspan></text>
<text xml:space="preserve" transform="matrix(.98994949 0 -0 1.0101526 0 792)" font-size="9.862471" font-family="NimbusRomNo9L"><tspan y="-325.47459" x="145.32662 152.99962 157.37856 160.12033 163.40453 166.1463 172.88237 176.16657 181.0978 186.02902 190.40796 193.14974 195.89151 200.82274 208.10123 212.48018 217.4114 222.34264 225.62683 230.55806 235.48929 238.23107 245.90407 250.283 253.02478 255.76656 260.69779 265.62904 270.48136 277.60206 284.33815 289.26939 292.55357 297.33689 302.11033 308.84638 315.58247 323.25547 327.6344 330.37617 337.1122 339.85398 344.78523 349.16416 354.0954 357.3796 361.75856 371.7788 375.06303 379.44197 384.3732 389.30445 393.68339 396.42515 401.35639 408.64476 411.3865 416.31776 423.05384 427.98509 432.364 435.64823 438.9324 443.86366 447.14787 454.82087 459.1998 464.13105 468.50999">metricfunctionapproximation,weproveametatheoremreducingtheperformance</tspan></text>
<text xml:space="preserve" transform="matrix(1.0099505 0 -0 .9901476 0 792)" font-size="10.061732" font-family="NimbusRomNo9L"><tspan y="-321.03294" x="142.44855 147.42911 151.89652 159.90566 164.93654 171.27542 176.30629 181.33716 187.66599 192.13339 197.16426 202.19513 205.54569 210.57657 215.04396 219.51137 227.52051 230.31768 238.32682 241.12398 246.15485">gapofourapproachtothe</tspan></text>
<text xml:space="preserve" transform="matrix(1.0099505 0 -0 .9901476 0 792)" font-size="10.061732" font-family="NimbusRomNo9L" font-style="italic"><tspan y="-321.03294" x="253.60648 258.63737 263.6682 267.4313 272.4622 279.72676 284.19419 286.99134 291.45875 298.35105 302.81846 306.73249 309.52964 312.32679 319.59135 324.62223 327.41938 330.21653 335.24739 343.26658 347.734 351.64805 355.11936 360.1502">parameterestimationerror</tspan></text>
<text xml:space="preserve" transform="matrix(1.0099505 0 -0 .9901476 0 792)" font-size="10.061732" font-family="NimbusRomNo9L"><tspan y="-321.03294" x="367.2675 370.61805 375.64894 381.97776 387.00865 390.1177 395.70198 398.4991 403.53 410.97569 415.4431 418.24028 422.70768 426.6217 430.5357 433.33287 438.9272 443.39463 447.86204 450.65919 453.45634 458.4872">forof&#xfb02;ineclassi&#xfb01;cation</tspan><tspan y="-310.01539" x="142.1228 145.47336 148.27053 150.78595 155.25336 163.80583 166.603 171.0704 175.5378 178.88835 183.91924 186.71639 191.74727 200.22931 203.02648 208.05736 215.986 220.30246 225.33335 230.36421 234.83162 238.18218 244.44057 249.47145 254.50232 257.29948 260.09663 264.4131 269.44398 272.79457 281.34703 284.69758 293.17964 295.97679 301.00764 308.93629 311.73344 316.20085 321.0305 326.06135 328.8585 333.32594 340.13774 344.05174 348.51918 351.3163 354.11347 356.9106 361.94148 370.43357 375.46446 382.26618 389.53077 392.32789 395.12504 403.61717 406.41429 409.21144 414.2423 418.70973 423.17716 429.98896 433.3395 438.3704 443.40129 447.86869 450.66584 453.46299 458.49385">(i.e.learningtheexpertpolicy).Inthetabularsettingorwithlinearfunction</tspan><tspan y="-298.99784" x="142.44855 146.91596 151.94683 156.9777 160.32826 165.35913 170.39 173.18717 181.01519 185.48259 188.27976 191.07692 196.10779 201.13866 207.14553 212.17639 217.20728 223.83795 231.66597 236.13338 238.93054 246.68813 249.48529 254.51616 258.98359 264.01445 267.36503 271.83244 282.95066 286.8647 291.89555 296.67488 303.93943 311.14366 313.9408 318.97169 323.4391 329.5164 332.31355 337.3444 345.10203 350.1329 354.6003 357.95088 361.30146 366.33235 369.6829 377.51094 381.97834 387.00923 391.47663 399.22419 404.20475 408.67216 416.99324 419.79039 424.82127 429.28868 434.31956 437.6701 441.0207 445.4881 453.80918 458.84007">approximation,ourmetatheoremshowsthattheperformancegapincurredby</tspan></text>
<text xml:space="preserve" transform="matrix(.98994949 0 -0 1.0101526 0 792)" font-size="9.862471" font-family="NimbusRomNo9L"><tspan y="-280.33885" x="145.32662 150.25785 155.18907 160.93889 165.31783 170.24906 175.18029 178.4645 183.39572 187.77466 192.1536 199.56032 203.93926 208.31819 213.24942 215.9912 220.11373 224.897 229.27596 235.57808 238.31986 243.25109 250.10552 255.03675 259.968 262.70976 265.4515 273.1245 277.50346">ourapproachachievestheoptimal</tspan></text>
<text xml:space="preserve" transform="matrix(1 0 -0 1 0 792)" font-size="9.9626" font-family="CMEX10"><tspan y="-285.704" x="281.874">&#xfffd;</tspan></text>
<text xml:space="preserve" transform="matrix(1 0 -0 1 0 792)" font-size="9.9626" font-family="CMMI10" font-style="italic"><tspan y="-283.185" x="279.873">O</tspan></text>
<text xml:space="preserve" transform="matrix(1 0 -0 1 0 792)" font-size="9.9626" font-family="CMEX10"><tspan y="-291.255" x="289.409">&#xfffd;</tspan></text>
<text xml:space="preserve" transform="matrix(1 0 -0 1 0 792)" font-size="9.9626" font-family="CMR10"><tspan y="-283.185" x="293.975 302.27388 305.04347 310.58268">min(</tspan></text>
<text xml:space="preserve" transform="matrix(1 0 -0 1 0 792)" font-size="9.9626" font-family="CMMI10" font-style="italic"><tspan y="-283.185" x="314.454">H</tspan></text>
<text xml:space="preserve" transform="matrix(1 0 -0 1 0 792)" font-size="6.9738" font-family="CMR7"><tspan y="-286.801" x="323.545">3</tspan></text>
<text xml:space="preserve" transform="matrix(1 0 -0 1 0 792)" font-size="6.9738" font-family="CMMI7" font-style="italic"><tspan y="-286.801" x="327.51603">/</tspan></text>
<text xml:space="preserve" transform="matrix(1 0 -0 1 0 792)" font-size="6.9738" font-family="CMR7"><tspan y="-286.801" x="331.59803">2</tspan></text>
<text xml:space="preserve" transform="matrix(1 0 -0 1 0 792)" font-size="9.9626" font-family="CMMI10" font-style="italic"><tspan y="-283.185" x="336.06803 341.04933">/N</tspan></text>
<text xml:space="preserve" transform="matrix(1 0 -0 1 0 792)" font-size="6.9738" font-family="CMR7"><tspan y="-281.691" x="349.05403 352.5967 356.781">exp</tspan></text>
<text xml:space="preserve" transform="matrix(1 0 -0 1 0 792)" font-size="9.9626" font-family="CMMI10" font-style="italic"><tspan y="-283.185" x="361.68003 366.11338 374.64137">,H/</tspan></text>
<text xml:space="preserve" transform="matrix(1 0 -0 1 0 792)" font-size="9.9626" font-family="CMEX10"><tspan y="-291.191" x="379.627">&#xfffd;</tspan></text>
<path transform="matrix(1,0,0,-1,389.589,500.609)" stroke-width=".398" stroke-linecap="butt" stroke-miterlimit="10" stroke-linejoin="miter" fill="none" stroke="#000000" d="M 0 0 L 20.631 0 "/>
<text xml:space="preserve" transform="matrix(1 0 -0 1 0 792)" font-size="9.9626" font-family="CMMI10" font-style="italic"><tspan y="-283.185" x="389.589">N</tspan></text>
<text xml:space="preserve" transform="matrix(1 0 -0 1 0 792)" font-size="6.9738" font-family="CMR7"><tspan y="-281.691" x="397.594 401.1367 405.32099">exp</tspan></text>
<text xml:space="preserve" transform="matrix(1 0 -0 1 0 792)" font-size="9.9626" font-family="CMEX10"><tspan y="-291.255" x="410.22">&#xfffd;</tspan></text>
<text xml:space="preserve" transform="matrix(1 0 -0 1 0 792)" font-size="9.9626" font-family="CMR10"><tspan y="-283.185" x="414.786">)</tspan></text>
<text xml:space="preserve" transform="matrix(.98994949 0 -0 1.0101526 0 792)" font-size="9.862471" font-family="NimbusRomNo9L"><tspan y="-280.33885" x="425.3813 430.31254 434.6915 439.62275 444.00169 448.93293 453.86418 458.2431 463.17436 467.40534 471.6758">dependency,</tspan></text>
<text xml:space="preserve" transform="matrix(1.0099505 0 -0 .9901476 0 792)" font-size="10.061732" font-family="NimbusRomNo9L"><tspan y="-274.98527" x="142.44855 147.47943 152.5103 157.54117 162.00858 167.87458 171.78858 174.58574 179.61661 184.64749 187.44466 193.03897 197.50638 201.97379 207.00466 209.80182 212.59899 220.1453 227.40985 231.87726 236.34467 241.27492 245.74231 251.6083 256.0757 259.98976 263.90376 268.93464 276.76268 281.79353 284.59068 287.38783 292.4187 297.4496 303.87904 308.34648 313.37733 321.20536 326.2362 330.70365 334.0542 338.52165 346.06794 348.86509 356.41139 361.44227 364.79286 367.59 372.62086 378.48689 385.65083 390.68168 394.03227 399.0631 404.78828 413.49168 420.47453 423.27168 431.0997 436.13056 438.9277 443.39515 451.22315 455.69056 460.72145">undersigni&#xfb01;cantlyweakerassumptionscomparedtopriorwork.Weimplement</tspan></text>
<text xml:space="preserve" transform="matrix(.98994949 0 -0 1.0101526 0 792)" font-size="9.862471" font-family="NimbusRomNo9L"><tspan y="-258.7401" x="145.32662 152.99962 157.93085 160.67263 163.4144 166.15616 171.0874 173.82917 180.6244 183.36618 188.29741 192.13391 194.87569 199.25463 204.18587 206.92763 209.6694 214.04836 216.79013 219.5319 224.46314 229.39437 235.65703 240.58826 246.28876 251.21999 256.1512 261.86158 266.24055 271.17179 276.10304 279.3872 284.31846 288.6974 293.07637 300.43379 305.36503 312.7126 316.54908 320.68147 325.4549 329.83384 333.11805 337.49699 342.66493 347.04386 351.9751 356.90635 359.6481 362.38987 367.3211 372.25236 377.1836 382.11485 388.36766 392.7466 397.67787 402.6091 405.35087 408.63505 413.56629 418.73423 421.47599 425.85493 429.69145 434.62269 440.8755 445.25444 450.18568 457.5431 463.02665 467.9579">multipleinstantiationsofourapproachonseveralcontinuouscontroltasksand&#xfb01;nd</tspan></text>
<text xml:space="preserve" transform="matrix(1.0099505 0 -0 .9901476 0 792)" font-size="10.061732" font-family="NimbusRomNo9L"><tspan y="-252.95015" x="142.44855 145.24571 150.2766 154.74399 160.27794 167.54251 174.7467 179.21411 182.56467 189.76886 194.23627 199.26714 202.0643 209.2685 212.06566 219.83332 223.74733 226.5445 231.57537 236.60623 239.4034 244.99773 249.46514 253.93254 258.9634 261.76057 264.5577 272.3254 275.12254 282.95057 287.98146 291.332 296.21195 301.10197 308.30619 313.33705 318.36793 321.16508 323.96223 328.2787 336.0464 341.07725 345.54469 348.89524 352.24583 357.27668 360.62727 368.45527 372.9227 377.95356 382.421 389.6252 394.09263 398.56004 401.9106 406.9415 410.8555 417.50636 424.71058 429.48988 433.9573 437.30787 440.105 444.57246 447.3696 455.13728 460.16813">thatweareabletosigni&#xfb01;cantlyimprovepolicyperformanceacrossavarietyof</tspan></text>
<text xml:space="preserve" transform="matrix(1 0 -0 1 0 792)" font-size="9.9626" font-family="NimbusRomNo9L"><tspan y="-239.549" x="143.866 148.84729 153.27069 156.0403 160.4637 164.33916 168.76256 174.02281 177.89827 180.66788 185.09128 189.51468 193.39014">datasetsizes.</tspan></text>
<text xml:space="preserve" transform="matrix(1 0 -0 1 0 792)" font-size="11.9552" font-family="NimbusRomNo9L" font-weight="bold"><tspan y="-206.76999" x="108 125.9328 130.58338 137.23047 141.21155 146.30446 152.28206 158.92916 165.57625 170.88436 174.86544 178.18898 184.16658">1Introduction</tspan></text>
<text xml:space="preserve" transform="matrix(1.0029956 0 -0 .9970134 0 792)" font-size="9.992443" font-family="NimbusRomNo9L"><tspan y="-184.36565" x="107.677448 111.00493">In</tspan></text>
<text xml:space="preserve" transform="matrix(1.0029956 0 -0 .9970134 0 792)" font-size="9.992443" font-family="NimbusRomNo9L" font-style="italic"><tspan y="-184.36565" x="118.48507 123.481288 128.47751 131.2554 134.03331 139.02953">online</tspan></text>
<text xml:space="preserve" transform="matrix(1.0029956 0 -0 .9970134 0 792)" font-size="9.992443" font-family="NimbusRomNo9L"><tspan y="-184.36565" x="145.95079 148.7287 156.50283 159.28073 162.05863 166.49527 169.27318 172.05107 177.0473 184.53163 187.30954 191.74619 196.18283 199.51032 204.50653 207.27445 212.27066 219.75499 223.08248 226.40996 232.51534 235.84282 240.82906 245.82527 250.8215 257.73625 260.51414 266.88935 271.88557 274.41368 279.26 283.69667 291.181 295.61766 300.05427 304.4909 308.92753 312.8146 319.17979 321.95768">imitationlearning(IL),oneisgivenaccessto</tspan></text>
<text xml:space="preserve" transform="matrix(1.0029956 0 -0 .9970134 0 792)" font-size="9.992443" font-family="NimbusRomNo9L" font-style="italic"><tspan y="-184.36565" x="329.4421 332.76963 337.76585">(a)</tspan></text>
<text xml:space="preserve" transform="matrix(1.0029956 0 -0 .9970134 0 792)" font-size="9.992443" font-family="NimbusRomNo9L"><tspan y="-184.36565" x="343.57679 350.50154 356.05735 360.9037 365.34034 372.81468 376.70176 381.13838 386.4044 391.40065 397.21626 401.503 406.49925 411.49546 415.9321 419.25959 424.5156 429.51185 433.94847 441.72257 446.7188 451.71504 455.6021 458.38 461.70753 466.14414 468.92204 471.69996 476.69618 481.6924 488.0676 492.50425 497.50047">a&#xfb01;xedsetofexpertdemonstrationsand</tspan></text>
<text xml:space="preserve" transform="matrix(1.0099505 0 -0 .9901476 0 792)" font-size="10.061732" font-family="NimbusRomNo9L" font-style="italic"><tspan y="-174.62548" x="106.2755 109.62605 114.65692">(b)</tspan></text>
<text xml:space="preserve" transform="matrix(1.0099505 0 -0 .9901476 0 792)" font-size="10.061732" font-family="NimbusRomNo9L"><tspan y="-174.62548" x="120.708889 125.17629 132.9037 137.37111 142.00957 147.04044 149.8376 153.18816 158.21903 163.2499 171.07793 175.54532 180.5762 186.07996 191.11084 197.15793 201.07195 203.86911 211.69713 216.728 219.52516 223.99257 226.78974 231.8206 237.87776 240.67493 248.40235 253.43321 257.90065 261.2512 264.60179 269.63267 272.98323 283.51786 286.86845 291.8993 294.69645 297.4936 302.52449 307.55534 310.35249 316.96308 319.76023 324.7911 331.0696 340.0145 344.4819 349.36186 357.09934 362.13023 367.16108 369.95823 372.75538 377.78627 384.95024 388.3008 397.15516 401.62257 406.65345 411.6843 415.03489 420.06575 424.53318 429.00059 434.03147 438.49888 445.10948 448.3594 452.8268 455.62397 461.12776 466.1586 471.18949 476.22038 480.68778 486.7349 489.53205 494.56294">anenvironmentorsimulatortoperformrolloutsin.ManyonlineILapproachesfallunderthe</tspan></text>
<text xml:space="preserve" transform="matrix(.99899956 0 -0 1.0010015 0 792)" font-size="9.952632" font-family="NimbusRomNo9L"><tspan y="-161.83394" x="108.10816 113.08447 120.82763 125.80394 129.11817 133.53714 136.30397 139.0708 145.97794 150.95427 156.74669 160.61827 165.5946 168.36144 173.33776 176.1046 181.08092 188.5454">umbrellaofsolvinga</tspan></text>
<text xml:space="preserve" transform="matrix(.99899956 0 -0 1.0010015 0 792)" font-size="9.952632" font-family="NimbusRomNo9L" font-style="italic"><tspan y="-161.83394" x="195.45055 202.63636 207.61269 214.7985 219.21746 224.19379 229.44878 236.63457 241.6109 244.37773 248.64742 253.62374 256.39057 261.3669">momentmatching</tspan></text>
<text xml:space="preserve" transform="matrix(.99899956 0 -0 1.0010015 0 792)" font-size="9.952632" font-family="NimbusRomNo9L"><tspan y="-161.83394" x="268.82496 273.80128 277.1155 282.09184 287.06816 289.835 294.25398 304.48527 309.46159 313.88056 316.6474 323.8332 328.25218 332.67115 340.1257 342.89253 347.3115 351.73048 355.0447 360.02104 364.44 370.24238 374.66136 379.63768 387.10215 391.37184 396.34815 401.32447 405.74345 409.05766 414.31266 417.07948 420.3937 424.81269 427.56956 431.98854 436.4075 439.17436 444.15068 447.46488 454.92936 459.90568 462.67253 466.5441 469.31095 472.62516 475.392 480.16929 485.1456 487.91246 490.67927 495.65559 500.63194">problembetweenlearnerandexperttrajectorydistributions</tspan></text>
<text xml:space="preserve" transform="matrix(1 0 -0 1 0 792)" font-size="9.9626" font-family="NimbusRomNo9L"><tspan y="-151.087" x="108 114.08715 116.85675 121.28014 126.261447 130.68485 134.0024 139.26265 143.68605 148.9463 153.3697 156.13932 161.1206 164.43816 169.41945 174.40074 179.38204 184.36333 187.68088 192.94113 200.13413 207.60607 217.84761 223.93476 227.2523 235.0032 239.9845 247.45644 250.77399 255.75528 260.73658 265.71788 270.69917 274.0167">Ziebartetal.(2008);Ho&#x0026;Ermon(2016),</tspan></text>
<text xml:space="preserve" transform="matrix(1 0 -0 1 0 792)" font-size="9.9626" font-family="CMR10"><tspan y="-134.08101" x="232.36499 240.66384 243.43344">min</tspan></text>
<text xml:space="preserve" transform="matrix(1 0 -0 1 0 792)" font-size="6.9738" font-family="CMMI7" font-style="italic"><tspan y="-127.65501" x="232.588">&#x03c0;</tspan></text>
<text xml:space="preserve" transform="matrix(1 0 -0 1 0 792)" font-size="6.9738" font-family="CMSY7" font-style="italic"><tspan y="-127.65501" x="237.497">&#x2208;</tspan></text>
<text xml:space="preserve" transform="matrix(1 0 -0 1 0 792)" font-size="6.9738" font-family="CMR7"><tspan y="-127.65501" x="242.866">&#x03a0;</tspan></text>
<text xml:space="preserve" transform="matrix(1 0 -0 1 0 792)" font-size="9.9626" font-family="CMR10"><tspan y="-134.08101" x="251.353 255.27826 260.81748">sup</tspan></text>
<text xml:space="preserve" transform="matrix(1 0 -0 1 0 792)" font-size="6.9738" font-family="CMMI7" font-style="italic"><tspan y="-125.64001" x="250.62999">f</tspan></text>
<text xml:space="preserve" transform="matrix(1 0 -0 1 0 792)" font-size="6.9738" font-family="CMSY7" font-style="italic"><tspan y="-125.64001" x="255.29599 260.6658">&#x2208;F</tspan></text>
<text xml:space="preserve" transform="matrix(1 0 -0 1 0 792)" font-size="9.9626" font-family="BBOLD10"><tspan y="-134.08101" x="268.735">E</tspan></text>
<text xml:space="preserve" transform="matrix(1 0 -0 1 0 792)" font-size="6.9738" font-family="CMMI7" font-style="italic"><tspan y="-132.58602" x="274.82398">&#x03c0;</tspan></text>
<text xml:space="preserve" transform="matrix(1 0 -0 1 0 792)" font-size="9.9626" font-family="CMR10"><tspan y="-134.08101" x="280.231">[</tspan></text>
<text xml:space="preserve" transform="matrix(1 0 -0 1 0 792)" font-size="9.9626" font-family="CMMI10" font-style="italic"><tspan y="-134.08101" x="282.998">f</tspan></text>
<text xml:space="preserve" transform="matrix(1 0 -0 1 0 792)" font-size="9.9626" font-family="CMR10"><tspan y="-134.08101" x="288.948">(</tspan></text>
<text xml:space="preserve" transform="matrix(1 0 -0 1 0 792)" font-size="9.9626" font-family="CMMI10" font-style="italic"><tspan y="-134.08101" x="292.823 297.49546 301.9288">s,a</tspan></text>
<text xml:space="preserve" transform="matrix(1 0 -0 1 0 792)" font-size="9.9626" font-family="CMR10"><tspan y="-134.08101" x="307.187 311.06248">)]</tspan></text>
<text xml:space="preserve" transform="matrix(1 0 -0 1 0 792)" font-size="9.9626" font-family="CMSY10" font-style="italic"><tspan y="-134.08101" x="316.04203">&#x2212;</tspan></text>
<text xml:space="preserve" transform="matrix(1 0 -0 1 0 792)" font-size="9.9626" font-family="BBOLD10"><tspan y="-134.08101" x="326.00505">E</tspan></text>
<text xml:space="preserve" transform="matrix(1 0 -0 1 0 792)" font-size="6.9738" font-family="CMMI7" font-style="italic"><tspan y="-132.11602" x="332.09306">&#x03c0;</tspan></text>
<text xml:space="preserve" transform="matrix(1 0 -0 1 0 792)" font-size="4.9813" font-family="CMMI5" font-style="italic"><tspan y="-134.10802" x="337.00205">E</tspan></text>
<text xml:space="preserve" transform="matrix(1 0 -0 1 0 792)" font-size="9.9626" font-family="CMR10"><tspan y="-134.08103" x="343.27006">[</tspan></text>
<text xml:space="preserve" transform="matrix(1 0 -0 1 0 792)" font-size="9.9626" font-family="CMMI10" font-style="italic"><tspan y="-134.08103" x="346.03807">f</tspan></text>
<text xml:space="preserve" transform="matrix(1 0 -0 1 0 792)" font-size="9.9626" font-family="CMR10"><tspan y="-134.08103" x="351.98808">(</tspan></text>
<text xml:space="preserve" transform="matrix(1 0 -0 1 0 792)" font-size="9.9626" font-family="CMMI10" font-style="italic"><tspan y="-134.08103" x="355.86207 360.53453 364.96788">s,a</tspan></text>
<text xml:space="preserve" transform="matrix(1 0 -0 1 0 792)" font-size="9.9626" font-family="CMR10"><tspan y="-134.08103" x="370.22608 374.10154">)]</tspan></text>
<text xml:space="preserve" transform="matrix(1 0 -0 1 0 792)" font-size="9.9626" font-family="CMMI10" font-style="italic"><tspan y="-134.08103" x="376.86808">,</tspan></text>
<text xml:space="preserve" transform="matrix(1 0 -0 1 0 792)" font-size="9.9626" font-family="NimbusRomNo9L"><tspan y="-134.08103" x="492.38407 495.7016 500.6829">(1)</tspan></text>
<text xml:space="preserve" transform="matrix(.99146357 0 -0 1.0086099 0 792)" font-size="9.877555" font-family="NimbusRomNo9L"><tspan y="-107.793918" x="108.56779 115.69939 120.63817 125.0238 128.31304">where</tspan></text>
<text xml:space="preserve" transform="matrix(1 0 -0 1 0 792)" font-size="9.9626" font-family="BBOLD10"><tspan y="-108.722" x="134.049">E</tspan></text>
<text xml:space="preserve" transform="matrix(1 0 -0 1 0 792)" font-size="6.9738" font-family="CMMI7" font-style="italic"><tspan y="-107.228" x="140.137">&#x03c0;</tspan></text>
<text xml:space="preserve" transform="matrix(1 0 -0 1 0 792)" font-size="9.9626" font-family="CMR10"><tspan y="-108.722" x="145.54399">[</tspan></text>
<text xml:space="preserve" transform="matrix(1 0 -0 1 0 792)" font-size="9.9626" font-family="CMSY10" font-style="italic"><tspan y="-108.722" x="148.31099">&#x00b7;</tspan></text>
<text xml:space="preserve" transform="matrix(1 0 -0 1 0 792)" font-size="9.9626" font-family="CMR10"><tspan y="-108.722" x="151.079">]</tspan></text>
<text xml:space="preserve" transform="matrix(.99146357 0 -0 1.0086099 0 792)" font-size="9.877555" font-family="NimbusRomNo9L"><tspan y="-107.793918" x="157.67499 162.61377 166.9994 171.93819 176.87697 179.62293 184.00855 190.34995 193.0959 198.03469 204.92922 209.16669 214.10547 219.04425 223.42989 227.8155 230.56147 234.9471 237.69306 240.43901 245.37779 252.8156 257.60624 262.39683 266.78248 272.5707 279.46525 282.75447 287.1401 292.0789 297.01765 301.95643 312.14018 314.88615 318.17536 322.561 325.30699 329.69264 334.07829 336.82426 341.763 345.05226">denotestheexpectationoverarandomtrajectory</tspan></text>
<text xml:space="preserve" transform="matrix(1 0 -0 1 0 792)" font-size="9.9626" font-family="CMSY10" font-style="italic"><tspan y="-108.722" x="349.486">{</tspan></text>
<text xml:space="preserve" transform="matrix(1 0 -0 1 0 792)" font-size="9.9626" font-family="CMR10"><tspan y="-108.722" x="354.46699">(</tspan></text>
<text xml:space="preserve" transform="matrix(1 0 -0 1 0 792)" font-size="9.9626" font-family="CMMI10" font-style="italic"><tspan y="-108.722" x="358.34098">s</tspan></text>
<text xml:space="preserve" transform="matrix(1 0 -0 1 0 792)" font-size="6.9738" font-family="CMR7"><tspan y="-107.228" x="363.011">1</tspan></text>
<text xml:space="preserve" transform="matrix(1 0 -0 1 0 792)" font-size="9.9626" font-family="CMMI10" font-style="italic"><tspan y="-108.722" x="367.481 371.91435">,a</tspan></text>
<text xml:space="preserve" transform="matrix(1 0 -0 1 0 792)" font-size="6.9738" font-family="CMR7"><tspan y="-107.228" x="377.175">1</tspan></text>
<text xml:space="preserve" transform="matrix(1 0 -0 1 0 792)" font-size="9.9626" font-family="CMR10"><tspan y="-108.722" x="381.64399">)</tspan></text>
<text xml:space="preserve" transform="matrix(1 0 -0 1 0 792)" font-size="9.9626" font-family="CMMI10" font-style="italic"><tspan y="-108.722" x="385.51799">,</tspan></text>
<text xml:space="preserve" transform="matrix(1 0 -0 1 0 792)" font-size="9.9626" font-family="CMSY10" font-style="italic"><tspan y="-108.722" x="389.94599 394.37934 398.8027">&#x00b7;&#x00b7;&#x00b7;</tspan></text>
<text xml:space="preserve" transform="matrix(1 0 -0 1 0 792)" font-size="9.9626" font-family="CMMI10" font-style="italic"><tspan y="-108.722" x="404.88999">,</tspan></text>
<text xml:space="preserve" transform="matrix(1 0 -0 1 0 792)" font-size="9.9626" font-family="CMR10"><tspan y="-108.722" x="409.318">(</tspan></text>
<text xml:space="preserve" transform="matrix(1 0 -0 1 0 792)" font-size="9.9626" font-family="CMMI10" font-style="italic"><tspan y="-108.722" x="413.192">s</tspan></text>
<text xml:space="preserve" transform="matrix(1 0 -0 1 0 792)" font-size="6.9738" font-family="CMMI7" font-style="italic"><tspan y="-107.228" x="417.862">H</tspan></text>
<text xml:space="preserve" transform="matrix(1 0 -0 1 0 792)" font-size="9.9626" font-family="CMMI10" font-style="italic"><tspan y="-108.722" x="425.419 429.85237">,a</tspan></text>
<text xml:space="preserve" transform="matrix(1 0 -0 1 0 792)" font-size="6.9738" font-family="CMMI7" font-style="italic"><tspan y="-107.228" x="435.112">H</tspan></text>
<text xml:space="preserve" transform="matrix(1 0 -0 1 0 792)" font-size="9.9626" font-family="CMR10"><tspan y="-108.722" x="442.669">)</tspan></text>
<text xml:space="preserve" transform="matrix(1 0 -0 1 0 792)" font-size="9.9626" font-family="CMSY10" font-style="italic"><tspan y="-108.722" x="446.543">}</tspan></text>
<text xml:space="preserve" transform="matrix(.99146357 0 -0 1.0086099 0 792)" font-size="9.877555" font-family="NimbusRomNo9L"><tspan y="-107.793918" x="457.916 462.85478 467.24043 472.17918 476.56483 479.85404 484.2397 486.98567 491.3713 498.80909 503.74787">generatedby</tspan></text>
<text xml:space="preserve" transform="matrix(1.0024968 0 -0 .9975093 0 792)" font-size="9.987475" font-family="NimbusRomNo9L"><tspan y="-98.057239" x="107.73102 111.05685 116.05059 118.82711 121.60362 124.380138 129.37389 136.84452 141.83826 146.832">rollingout</tspan></text>
<text xml:space="preserve" transform="matrix(1 0 -0 1 0 792)" font-size="9.9626" font-family="CMMI10" font-style="italic"><tspan y="-97.813" x="152.474">&#x03c0;</tspan></text>
<text xml:space="preserve" transform="matrix(1.0024968 0 -0 .9975093 0 792)" font-size="9.987475" font-family="NimbusRomNo9L"><tspan y="-98.057239" x="158.11522 163.68822 169.24126 176.35233 180.78678 188.55702 196.03765 200.47209 205.7255 210.15993 212.93645 217.9202 221.24602 226.23976 231.2335 236.22725 241.221 247.02371 250.90885 255.90258 260.6466 270.34449 273.121 278.11473 282.54917 287.80259 291.12843 296.12217 301.93489 306.36933 313.83998 318.2744 323.26817 328.26188 331.5877 336.58146 341.57518 344.901 347.67753 352.11198 354.8885 361.79985 366.2343 371.22804 376.22175 378.99827 383.4327 390.35408 395.3478">.Swamyetal.(2021)showthatforanappropriatechoiceof</tspan></text>
<text xml:space="preserve" transform="matrix(1 0 -0 1 0 792)" font-size="9.9626" font-family="CMSY10" font-style="italic"><tspan y="-97.813" x="402.155">F</tspan></text>
<text xml:space="preserve" transform="matrix(1.0024968 0 -0 .9975093 0 792)" font-size="9.987475" font-family="NimbusRomNo9L"><tspan y="-98.057239" x="409.28309 414.26689 418.70133 423.69505 428.68879 432.01463 437.00834 442.00209 444.77857 452.53886 456.97334 459.74986 466.67118 470.5563 475.55006 478.32658 483.32029 486.0968 488.87333 493.86705 498.86079">,approximatesolutions</tspan></text>
<path transform="matrix(1,0,0,-1,108,702.17)" stroke-width=".398" stroke-linecap="butt" stroke-miterlimit="10" stroke-linejoin="miter" fill="none" stroke="#000000" d="M 0 0 L 143.462 0 "/>
<text xml:space="preserve" transform="matrix(1 0 -0 1 0 792)" font-size="5.9776" font-family="CMSY6" font-style="italic"><tspan y="-84.224" x="119.822">&#x2217;</tspan></text>
<text xml:space="preserve" transform="matrix(1 0 -0 1 0 792)" font-size="8.9664" font-family="NimbusRomNo9L"><tspan y="-80.415" x="124.139 129.61748 134.10068 138.58388 142.56496 147.29923 151.2803 155.7635 160.2467 162.73937 165.72518 168.21784 172.52172 177.00492 179.49758 181.99024 186.47344 190.95664 195.97783 201.95842 206.44162 209.42743 212.41324 216.39432 219.88225 224.36545 228.84865 233.33185 237.81505 241.79613 246.27933 250.2604 256.4831 258.97575">Equalcontribution.Correspondenceto</tspan></text>
<text xml:space="preserve" transform="matrix(1 0 -0 1 0 792)" font-size="8.9664" font-family="SFTT0900"><tspan y="-80.415" x="265.699 270.40638 275.11375 279.8211 284.52848 289.23585 293.9432 298.65058 303.35795 308.0653 312.77268 317.48005 322.1874 326.89479">gswamy@cmu.edu</tspan></text>
<text xml:space="preserve" transform="matrix(1 0 -0 1 0 792)" font-size="8.9664" font-family="NimbusRomNo9L"><tspan y="-80.415" x="333.828 337.80909 342.2923">and</tspan></text>
<text xml:space="preserve" transform="matrix(1 0 -0 1 0 792)" font-size="8.9664" font-family="SFTT0900"><tspan y="-80.415" x="349.017 353.72438 358.43174 363.1391 367.84648 372.55384 377.2612 381.96858 386.67594 391.3833 396.09068 400.79804 405.5054 410.21278 414.92015 419.6275 424.33488 429.03327 433.74064 438.448 443.15538 447.86274 452.5701 457.27748 461.98484 466.6922 471.39958 476.10694">nived.rajaraman@berkeley.edu</tspan></text>
<text xml:space="preserve" transform="matrix(1 0 -0 1 0 792)" font-size="8.9664" font-family="NimbusRomNo9L"><tspan y="-80.415" x="480.78999">.</tspan></text>
<text xml:space="preserve" transform="matrix(1 0 -0 1 0 792)" font-size="8.9664" font-family="NimbusRomNo9L"><tspan y="-52.123" x="107.99997 112.48317 116.96637 119.45903 126.18383 132.16442 136.64762 141.13082 144.11663 148.0977 151.08351 155.06459 159.54779 163.52887 169.75156 174.23476 180.95957 187.4333 191.41439 195.89759 198.88339 202.86447 207.59874 210.58455 215.06775 218.05356 222.53676 225.52257 232.49843 236.4795 238.97217 241.46483 245.94803 252.67284 257.65815 260.64396 265.12715 269.10823 273.0893 276.5772 280.06513 282.55778 287.04096 293.76579 298.7511 303.2343 306.72224 309.21488 313.19596 320.1718 325.90135 328.88716 335.3609 339.34199 343.8252 346.811 349.7968 354.78215 362.00907 366.49226 370.97547 375.45869 379.9419 382.9277">36thConferenceonNeuralInformationProcessingSystems(NeurIPS2022).</tspan></text>
<text fill="#929292" xml:space="preserve" transform="matrix(0 -1 1 0 0 792)" font-size="20" font-family="Times"><tspan y="32" x="232 240.88 247.54001 261.98 267.54 277.54 283.1 293.1 303.1 313.1 323.1 328.1 338.1 348.1 358.1 368.1 378.1 388.1 398.1 403.1 408.1 414.76 423.64 431.42 436.42 448.64 463.08003 469.74003 474.74003 479.74003 489.74003 499.74003 504.74003 519.18 528.06 533.62 538.62 548.62 558.62 568.62">arXiv:2205.15397v4  [cs.LG]  22 Oct 2022</tspan></text>
</g>
</svg>
